<svg xmlns="http://www.w3.org/2000/svg" viewBox="0 0 114.55 116.77"><defs><style>.cls-1{fill:#004070;}.cls-2{fill:#ffb561;}.cls-3{fill:#ff8d00;}.cls-4{fill:#00ceff;}.cls-5{fill:#f56625;}.cls-6{fill:#00d7ff;}.cls-7{fill:#ffddce;}.cls-8{fill:#007695;}.cls-9{fill:#0092ba;}.cls-10{fill:none;stroke:#0092ba;stroke-miterlimit:10;stroke-width:0.63px;}.cls-11{fill:#402146;}.cls-12{fill:#231027;}.cls-13{fill:#ffb700;}.cls-14{fill:#ffd86c;}.cls-15{fill:#009bdb;}.cls-16{fill:#00a6e8;}.cls-17{fill:#00b2ed;}.cls-18{fill:#c8e0e6;}.cls-19{fill:#fff;}</style></defs><title>BirdAsset 2Tank</title><g id="Layer_2" data-name="Layer 2"><g id="_0" data-name="0"><path class="cls-1" d="M62.85,102c.34-.8,3.65-1.66,2.77-2.44S63.15,101.29,62.85,102Z"/><path class="cls-1" d="M86.64,102.1c-.37-.78-3.71-1.5-2.87-2.32S86.31,101.4,86.64,102.1Z"/><path class="cls-2" d="M65.44,100.73A.95.95,0,0,1,65,99l.34-.22a22.71,22.71,0,0,1,9.22-3.29,1.42,1.42,0,0,0,.46-.09,1.44,1.44,0,0,0,.27-.34c1.54-2.34,3.07-4.75,4.54-7.14a.95.95,0,1,1,1.61,1C80,91.21,78.5,93.53,77,95.8a22.33,22.33,0,0,1,7.47,3.32.95.95,0,0,1-1,1.62c-3.07-1.87-5.84-3.4-8.78-3.19a14,14,0,0,0-2.79.58,21.93,21.93,0,0,0-5.64,2.25l-.3.19A1,1,0,0,1,65.44,100.73Z"/><path class="cls-3" d="M78,91.91c1.84,1,4.07.07,5.86-1a34.68,34.68,0,0,0,6.53-4.89,1.06,1.06,0,0,0,.46-.86,1,1,0,0,0-.45-.61c-2.91-2.35-8.63-4-12.16-2C75.23,84.29,74.55,90.11,78,91.91Z"/><path class="cls-3" d="M38.77,7a72.28,72.28,0,0,0-8.53,9.48c-1.68,2.37-5.33.57-5.37,3.48-.08,4.25,13.87,1.66,15.59,6.21-1.9,5.48-3.79,16.23-1.9,28,1,6.51,5.16,14,9.7,18.75C60.47,85.83,74.1,87.47,91.62,90.42c3.38.57,7.16,1,9.95-1,2.62-1.87,2.12-6.84,2.63-10,2.92-18.3.24-38.59-14.67-49.59C81.76,24,79.74,21.12,76.75,15.42c-1.1-2.09-1.45-3.55-2.79-5.49a24,24,0,0,0-4.21-4.22C64,1.15,56.86-.9,49.73.87S36.9,6.58,33.93,13.3"/><path class="cls-1" d="M48.58,101.06c.34-.8,3.65-1.65,2.77-2.44S48.88,100.35,48.58,101.06Z"/><path class="cls-1" d="M72.37,101.16c-.37-.79-3.71-1.5-2.87-2.32S72,100.46,72.37,101.16Z"/><path class="cls-2" d="M51.17,99.78A.95.95,0,0,1,50.68,98l.34-.22a22.55,22.55,0,0,1,9.22-3.28,1.76,1.76,0,0,0,.46-.09A1.33,1.33,0,0,0,61,94.1C62.51,91.76,64,89.36,65.51,87a.93.93,0,0,1,1.3-.31,1,1,0,0,1,.32,1.3c-1.42,2.32-2.9,4.64-4.38,6.9a22.33,22.33,0,0,1,7.47,3.32,1,1,0,0,1,.31,1.31.93.93,0,0,1-1.3.31c-3.07-1.87-5.84-3.4-8.78-3.18a14,14,0,0,0-2.79.57A22.34,22.34,0,0,0,52,99.44l-.3.19A.92.92,0,0,1,51.17,99.78Z"/><path class="cls-3" d="M63.73,91c1.84,1,4.07.08,5.86-1a35.11,35.11,0,0,0,6.53-4.89c.25-.24.51-.53.46-.86a1,1,0,0,0-.45-.61c-2.91-2.35-8.63-4-12.16-2C61,83.35,60.28,89.16,63.73,91Z"/><path class="cls-4" d="M111.69,88a58,58,0,0,0-.45,8.93c.51,6.73,4.33,13.25,3.05,19.88a14,14,0,0,1-8.64-9.81c-.06,1.25-.12,2.49-.17,3.74-2.66-1-4.34-3.6-5.84-6-2.79-4.47-5.61-9-7-14.08s-1.44-10.66-1.72-16a132.2,132.2,0,0,0-4.34-27.31A133.55,133.55,0,0,0,81.91,33.2C81,31,76.21,23.62,80,23.48c5.09-.18,14.51,12.57,17.24,16.21a73.68,73.68,0,0,1,11.18,21.52A69.13,69.13,0,0,1,111.69,88Z"/><path class="cls-5" d="M69.93,27.08c4.46-3.53,7-9.84,5.34-15.11a8.54,8.54,0,0,0-1.1-2,32.66,32.66,0,0,0-5-4.85A22.43,22.43,0,0,0,49.31.7c-5.88,1.46-11.52,6.91-10.54,6,0,0-7.6,7.05-8.53,9.48-1.27,3.32-5.33.57-5.37,3.48-.06,3.29,6,6.23,9.59,9.49a53,53,0,0,0,17.39,3C58.23,32.12,64.92,31,69.93,27.08Z"/><path class="cls-6" d="M100.38,97.24c.48,1.84,1.22,3.89,3,4.61a9,9,0,0,0,1.71-7.24,28.14,28.14,0,0,0,2.83,9.12c.35.7,1,1.5,1.74,1.33s1-1.17,1-2c.1-1.55.19-3.09.28-4.63.74-12.11,1.15-27.65-3.9-40.6-1.19-3-.73-2.63-2.11-5.59-3.18-6.79-7.17-13-13.94-16.18.78.37,1.36,6.56,1.57,7.57q.83,4,1.61,8.1c1,5.4,2,10.82,2.73,16.27C98.27,77.79,97.88,87.69,100.38,97.24Z"/><path class="cls-1" d="M73.85,72.82A117,117,0,0,0,84.31,99.05c1,1.93,2.46,4,4.64,4.31a59.88,59.88,0,0,0-6.3-20.21,125.72,125.72,0,0,0,7.18,15.71c1.79,3.31,3.88,6.69,7.16,8.54a69.11,69.11,0,0,0-8.13-23.06,30.33,30.33,0,0,0,7.79,10.47,71.94,71.94,0,0,0-7.33-16.45l6.86,8.82c.84,1.08,1.82,2.24,3.17,2.44a61.11,61.11,0,0,0-6.56-21,28.4,28.4,0,0,0,9,14.11A46,46,0,0,0,91.62,59.71a34.92,34.92,0,0,1-8.18,5.94,12.66,12.66,0,0,1-9.84.74,65.7,65.7,0,0,0,1.4,11"/><path class="cls-7" d="M29.88,27.67c.15-.38.29-.76.43-1.13a12.14,12.14,0,0,0,2.43,4.09c.23.25.54.52.87.43a.85.85,0,0,0,.5-.57,2.79,2.79,0,0,0,0-2A6.8,6.8,0,0,0,37,32.2.57.57,0,0,0,38,32a3.32,3.32,0,0,0,.31-2,24.15,24.15,0,0,0,2.55,3.57c-.62-1.21.18-2.64.95-3.76l3.35-4.89a13.71,13.71,0,0,0-8.4-4c-2-.19-7.27-.23-8.71,1.5C26.22,24.6,30.16,26.93,29.88,27.67Z"/><path class="cls-8" d="M45.62,25.73C37.51,32,39.93,44.44,44.36,51.86c.88,1.47,2.23,3,3.92,2.83.18-.8.36-1.59.53-2.38a37.26,37.26,0,0,0,6.84,9.54A5,5,0,0,0,58,63.42a1.9,1.9,0,0,0,2.28-1.22,33.52,33.52,0,0,0,8.11,7.19c2.11,1.32,5.35,2.19,6.71.1a5.2,5.2,0,0,0,.36-3.6q-1.55-11.18-3.1-22.37a2.71,2.71,0,0,1,0-1.33c.42-1,1.83-1.11,3-1.14a14.06,14.06,0,0,0,11-5.94,4.57,4.57,0,0,0,.83-1.79,4.54,4.54,0,0,0-.44-2.5C84.35,25,78.2,21.47,72,20.58s-12.49.47-18.53,2.11a27.13,27.13,0,0,0-7.93,3.13"/><path class="cls-8" d="M75.31,80.77a5.74,5.74,0,0,0-1.09-4,20.65,20.65,0,0,0,8.34,5.61,7.3,7.3,0,0,0-2-5,18.9,18.9,0,0,0,6.53,4.39,9.55,9.55,0,0,0-.81-5,11,11,0,0,0,5.66,4,10.19,10.19,0,0,0-1.66-4.61,10.12,10.12,0,0,0,5.36,3.3,21.24,21.24,0,0,0-1.55-5.11,2.21,2.21,0,0,0,3,.79C95.36,70.88,92,67.5,88.65,64.24L75.83,51.65c-1,.69-.78,2.21-1.23,3.34-.74,1.82-3.06,2.29-5,2.5-3.24.34-9.86-11.34-13.11-11-2.77.29-7.38,4.19-6.63,7.27.56,2.34,4.74,10.43,11,16.12C62.21,71.1,75.34,80.54,75.31,80.77Z"/><path class="cls-9" d="M77.35,79.75a9.86,9.86,0,0,0,4.49,2.86A.65.65,0,0,0,82.6,82a6.7,6.7,0,0,0-1.87-4.41c.6,1.23,1.87,3.55,1,3.68s-2.47-.94-3.12-1.54A152.61,152.61,0,0,1,60.49,60a58.56,58.56,0,0,0,7.31,10.1C70.77,73.51,74.06,76.64,77.35,79.75Z"/><path class="cls-9" d="M82.11,78.93a9.73,9.73,0,0,0,4.5,2.85.63.63,0,0,0,.75-.65,6.68,6.68,0,0,0-1.87-4.41c.6,1.22,1.87,3.54,1,3.67s-2.47-.93-3.12-1.54A154.59,154.59,0,0,1,65.25,59.17a59.52,59.52,0,0,0,7.31,10.09C75.53,72.68,78.83,75.82,82.11,78.93Z"/><path class="cls-9" d="M86.54,78.3A9.75,9.75,0,0,0,91,81.15a.65.65,0,0,0,.76-.65,6.66,6.66,0,0,0-1.87-4.41c.59,1.22,1.87,3.54,1,3.67s-2.48-.93-3.12-1.54A153.35,153.35,0,0,1,69.67,58.53,58.69,58.69,0,0,0,77,68.63C80,72.05,83.25,75.18,86.54,78.3Z"/><path class="cls-9" d="M90.66,77a9.78,9.78,0,0,0,4.5,2.85.64.64,0,0,0,.75-.65,6.64,6.64,0,0,0-1.86-4.41c.59,1.22,1.86,3.54,1,3.67s-2.48-.93-3.13-1.54A154.59,154.59,0,0,1,73.8,57.19a59.52,59.52,0,0,0,7.31,10.09C84.08,70.7,87.38,73.83,90.66,77Z"/><path class="cls-9" d="M92.72,73.63a9.75,9.75,0,0,0,4.49,2.85.64.64,0,0,0,.76-.65,6.68,6.68,0,0,0-1.87-4.41c.59,1.22,1.87,3.54,1,3.67s-2.47-.93-3.12-1.54A153.14,153.14,0,0,1,75.86,53.87,58.44,58.44,0,0,0,83.17,64C86.14,67.38,89.43,70.52,92.72,73.63Z"/><path class="cls-9" d="M41.2,36.05a13.65,13.65,0,0,0,.15,2.22,3.5,3.5,0,0,0,.86,1.93,1.55,1.55,0,0,0,1.85-.09,3.82,3.82,0,0,0,1.14-1.75L45.75,37l-.08,1.49a8.69,8.69,0,0,0,.11,2.4,2.59,2.59,0,0,0,1.28,1.76,2,2,0,0,0,2,.06,2.85,2.85,0,0,0,1.1-1.88l.69-3,0,3.12a6.85,6.85,0,0,0,.39,2.32,6.61,6.61,0,0,0,1.13,2.05,1.15,1.15,0,0,0,1.77-.05,7.62,7.62,0,0,0,1.05-2.12l.31-.66.15.72.42,2.13c.17.68.17,1.56.79,1.74a2,2,0,0,0,1.84-.65,2.82,2.82,0,0,0,.85-1.92,2.86,2.86,0,0,1-.72,2,2.22,2.22,0,0,1-2.06.83,1.22,1.22,0,0,1-.82-.87c-.12-.37-.18-.72-.27-1.08l-.52-2.14.47.07a6.94,6.94,0,0,1-1.09,2.32,2.19,2.19,0,0,1-1.27.62A1.6,1.6,0,0,1,52,45.68a7.21,7.21,0,0,1-1.29-2.24,7.42,7.42,0,0,1-.46-2.55l.66.08a3.44,3.44,0,0,1-1.41,2.27,2.64,2.64,0,0,1-2.69-.07A3.21,3.21,0,0,1,45.22,41a8.23,8.23,0,0,1,0-2.57l.47.12a4.3,4.3,0,0,1-1.35,1.89,1.89,1.89,0,0,1-2.3,0,3.7,3.7,0,0,1-.82-2.14A12,12,0,0,1,41.2,36.05Z"/><path class="cls-10" d="M49.44,50.4A14.68,14.68,0,0,0,50.7,54c.41.82,1.11,1.7,2,1.56a2,2,0,0,0,1.34-1.45,6.36,6.36,0,0,1,.75-1.93,4.65,4.65,0,0,0,1.4,3.07,1.12,1.12,0,0,0,.69.37,1.14,1.14,0,0,0,.83-.42,5.21,5.21,0,0,0,1-1.45,10,10,0,0,0,1.81,3.43,4,4,0,0,0,1.61,1.56,2.52,2.52,0,0,0,2.61-.62A4.69,4.69,0,0,0,66,55.65"/><path class="cls-8" d="M55.67.13C67.57.7,77.11,9.93,82,24.47c-2.61-1.35-5.06-2.71-7.93-3a4.42,4.42,0,0,1-2.35-.62,6.24,6.24,0,0,1-1.46-2.07A8.51,8.51,0,0,0,59.4,15.25a4.62,4.62,0,0,1-2.28.78,5.34,5.34,0,0,1-2.25-1.19,5.82,5.82,0,0,0-7.76,1.64A2.48,2.48,0,0,0,45,14.4c-1.55-.28-3.63.53-4.55-.76-1.52-2.13-9.11,5.24-10.64,4.08C28,16.36,36.91,8.15,38.14,7A23.68,23.68,0,0,1,55.67.13Z"/><path class="cls-6" d="M49.46,10.69l-.05,0a.16.16,0,0,0-.23,0,1.12,1.12,0,0,1-.88.63.66.66,0,0,1-.46-.13.17.17,0,0,0-.24,0,.16.16,0,0,0,0,.23.92.92,0,0,0,.75.26,1.42,1.42,0,0,0,1.15-.78A.18.18,0,0,0,49.46,10.69Z"/><path class="cls-6" d="M52,10.34a.24.24,0,0,0-.11-.06.17.17,0,0,0-.19.14,1.1,1.1,0,0,1-.6.9.72.72,0,0,1-.48,0,.16.16,0,1,0-.17.28.91.91,0,0,0,.79,0,1.46,1.46,0,0,0,.79-1.15A.22.22,0,0,0,52,10.34Z"/><path class="cls-6" d="M51.31,12.18a.21.21,0,0,0-.1-.06.18.18,0,0,0-.2.14,1.12,1.12,0,0,1-.59.9.73.73,0,0,1-.48.05.17.17,0,0,0-.18.28.93.93,0,0,0,.8,0,1.45,1.45,0,0,0,.78-1.15A.17.17,0,0,0,51.31,12.18Z"/><path class="cls-6" d="M53.76,11.21a.2.2,0,0,0-.11-.06.17.17,0,0,0-.19.14,1.12,1.12,0,0,1-.59.9.75.75,0,0,1-.49.05.16.16,0,0,0-.23,0,.17.17,0,0,0,.06.23.91.91,0,0,0,.79,0,1.46,1.46,0,0,0,.79-1.15A.22.22,0,0,0,53.76,11.21Z"/><path class="cls-6" d="M64.07,6.48a.17.17,0,0,0-.1-.06.18.18,0,0,0-.2.14,1.12,1.12,0,0,1-.59.9.64.64,0,0,1-.48,0,.18.18,0,0,0-.23.06.16.16,0,0,0,.06.23.91.91,0,0,0,.79,0,1.43,1.43,0,0,0,.78-1.15A.17.17,0,0,0,64.07,6.48Z"/><path class="cls-6" d="M58.76,9.12a.17.17,0,0,0-.1-.06.19.19,0,0,0-.2.14,1.12,1.12,0,0,1-.59.9.66.66,0,0,1-.48.05.16.16,0,0,0-.23,0,.17.17,0,0,0,.05.23.93.93,0,0,0,.8,0,1.43,1.43,0,0,0,.78-1.15A.17.17,0,0,0,58.76,9.12Z"/><path class="cls-6" d="M57.7,6.79a.2.2,0,0,0-.11-.06.17.17,0,0,0-.19.14,1.12,1.12,0,0,1-.59.9.64.64,0,0,1-.48,0,.19.19,0,0,0-.24.06.17.17,0,0,0,.06.23.93.93,0,0,0,.8,0,1.48,1.48,0,0,0,.78-1.15A.17.17,0,0,0,57.7,6.79Z"/><path class="cls-6" d="M69.81,7.68a.12.12,0,0,0-.13,0,.33.33,0,0,0-.22.27,2.13,2.13,0,0,1-.65,1.41,1.13,1.13,0,0,1-.57.33.28.28,0,0,0-.27.19c-.06.12,0,.23.08.25a1.45,1.45,0,0,0,1-.48,2.81,2.81,0,0,0,.86-1.81C69.87,7.75,69.85,7.7,69.81,7.68Z"/><path class="cls-6" d="M68.11,12.11a.17.17,0,0,0-.3.07,1.14,1.14,0,0,1-.59.91.64.64,0,0,1-.48,0,.18.18,0,0,0-.23.06.17.17,0,0,0,0,.23.94.94,0,0,0,.8,0,1.4,1.4,0,0,0,.78-1.15A.15.15,0,0,0,68.11,12.11Z"/><path class="cls-6" d="M56.76,9.34a.17.17,0,0,0-.3.08,1.12,1.12,0,0,1-.59.9.64.64,0,0,1-.48,0,.17.17,0,0,0-.23.06.17.17,0,0,0,.06.23.88.88,0,0,0,.79,0,1.4,1.4,0,0,0,.78-1.15A.16.16,0,0,0,56.76,9.34Z"/><path class="cls-6" d="M54.21,8a.21.21,0,0,0-.1-.06.19.19,0,0,0-.2.14,1.12,1.12,0,0,1-.59.9.73.73,0,0,1-.48.05.17.17,0,0,0-.18.28.93.93,0,0,0,.8,0,1.43,1.43,0,0,0,.78-1.15A.17.17,0,0,0,54.21,8Z"/><path class="cls-6" d="M50.82,9.26v0a.16.16,0,0,0-.24,0,1.09,1.09,0,0,1-1,.38.6.6,0,0,1-.42-.25.18.18,0,0,0-.22-.09.17.17,0,0,0-.09.23,1,1,0,0,0,.66.44,1.45,1.45,0,0,0,1.31-.47A.16.16,0,0,0,50.82,9.26Z"/><path class="cls-6" d="M52.68,7.3a.2.2,0,0,0-.11-.06.16.16,0,0,0-.19.13,1.14,1.14,0,0,1-.6.9.67.67,0,0,1-.49,0,.17.17,0,1,0-.17.29.94.94,0,0,0,.79,0,1.43,1.43,0,0,0,.8-1.14A.22.22,0,0,0,52.68,7.3Z"/><path class="cls-6" d="M74.16,19.88a.17.17,0,0,0-.08-.14.17.17,0,0,0-.23.06,1.15,1.15,0,0,1-.89.62.62.62,0,0,1-.46-.14.17.17,0,0,0-.24,0,.17.17,0,0,0,0,.23.92.92,0,0,0,.75.27A1.4,1.4,0,0,0,74.13,20,.16.16,0,0,0,74.16,19.88Z"/><path class="cls-6" d="M71.22,10.57a.17.17,0,0,0-.3.12,1.11,1.11,0,0,1-.33,1,.62.62,0,0,1-.45.17.17.17,0,0,0-.09.33,1,1,0,0,0,.76-.25,1.42,1.42,0,0,0,.44-1.31A.14.14,0,0,0,71.22,10.57Z"/><path class="cls-6" d="M78.7,18.05a.16.16,0,0,0-.15-.06.17.17,0,0,0-.15.18,1.1,1.1,0,0,1-.33,1,.62.62,0,0,1-.45.17.17.17,0,0,0-.09.33,1,1,0,0,0,.76-.24,1.45,1.45,0,0,0,.44-1.32A.14.14,0,0,0,78.7,18.05Z"/><path class="cls-6" d="M72.48,15.94a.14.14,0,0,0-.14-.06.17.17,0,0,0-.16.18,1.1,1.1,0,0,1-.32,1,.62.62,0,0,1-.46.17.17.17,0,0,0-.2.12.17.17,0,0,0,.11.21.93.93,0,0,0,.76-.24A1.45,1.45,0,0,0,72.52,16,.18.18,0,0,0,72.48,15.94Z"/><path class="cls-6" d="M76.23,17a.14.14,0,0,0-.12-.11.16.16,0,0,0-.2.12,1.11,1.11,0,0,1-.65.86.65.65,0,0,1-.48,0,.17.17,0,0,0-.24,0,.17.17,0,0,0,0,.23.93.93,0,0,0,.8,0,1.47,1.47,0,0,0,.86-1.1A.14.14,0,0,0,76.23,17Z"/><path class="cls-6" d="M64.83,11.83a.17.17,0,0,0-.15-.06.17.17,0,0,0-.15.18,1.12,1.12,0,0,1-.33,1,.62.62,0,0,1-.45.17.17.17,0,0,0-.21.12.18.18,0,0,0,.12.21,1,1,0,0,0,.75-.24,1.42,1.42,0,0,0,.45-1.32A.16.16,0,0,0,64.83,11.83Z"/><path class="cls-6" d="M63.13,1.68A.17.17,0,0,0,63,1.62a.17.17,0,0,0-.15.18,1.14,1.14,0,0,1-.33,1,.62.62,0,0,1-.45.17.17.17,0,1,0-.09.33,1,1,0,0,0,.76-.25,1.42,1.42,0,0,0,.44-1.31A.12.12,0,0,0,63.13,1.68Z"/><path class="cls-6" d="M67.85,5.41a.18.18,0,0,0-.15-.07.17.17,0,0,0-.15.19,1.11,1.11,0,0,1-.33,1,.64.64,0,0,1-.45.18.17.17,0,0,0-.21.12.16.16,0,0,0,.12.2,1,1,0,0,0,.76-.24,1.44,1.44,0,0,0,.44-1.32A.11.11,0,0,0,67.85,5.41Z"/><path class="cls-6" d="M76.06,14.33a.15.15,0,0,0-.12-.1.18.18,0,0,0-.2.14,1.09,1.09,0,0,1-.58.9.61.61,0,0,1-.48.05.17.17,0,0,0-.23.06.17.17,0,0,0,.06.23.91.91,0,0,0,.79,0,1.41,1.41,0,0,0,.77-1.16A.1.1,0,0,0,76.06,14.33Z"/><path class="cls-6" d="M62.91,9A.17.17,0,0,0,62.76,9a.16.16,0,0,0-.15.18,1.12,1.12,0,0,1-.33,1,.7.7,0,0,1-.46.18.15.15,0,0,0-.2.11.17.17,0,0,0,.12.21.92.92,0,0,0,.75-.24,1.42,1.42,0,0,0,.45-1.32A.32.32,0,0,0,62.91,9Z"/><path class="cls-6" d="M62.57,4.78a.16.16,0,0,0-.15-.06.17.17,0,0,0-.15.18,1.1,1.1,0,0,1-.33,1,.7.7,0,0,1-.45.18.16.16,0,0,0-.21.11.18.18,0,0,0,.12.21.94.94,0,0,0,.76-.24,1.45,1.45,0,0,0,.44-1.32A.16.16,0,0,0,62.57,4.78Z"/><path class="cls-6" d="M74.49,11.41a.17.17,0,0,0-.15-.06.16.16,0,0,0-.15.18,1.12,1.12,0,0,1-.33,1,.62.62,0,0,1-.45.17.17.17,0,0,0-.21.12.17.17,0,0,0,.12.21.92.92,0,0,0,.75-.24,1.42,1.42,0,0,0,.45-1.32A.32.32,0,0,0,74.49,11.41Z"/><path class="cls-6" d="M70.69,14.05a.17.17,0,0,0-.15-.07.17.17,0,0,0-.15.19,1.09,1.09,0,0,1-.33,1,.68.68,0,0,1-.45.18.16.16,0,0,0-.2.12.15.15,0,0,0,.11.2.93.93,0,0,0,.76-.24,1.44,1.44,0,0,0,.45-1.32A.2.2,0,0,0,70.69,14.05Z"/><path class="cls-6" d="M60.68,9a.18.18,0,0,0-.15-.07.17.17,0,0,0-.15.19,1.11,1.11,0,0,1-.33,1,.7.7,0,0,1-.45.18.17.17,0,1,0-.09.32,1,1,0,0,0,.76-.24,1.44,1.44,0,0,0,.44-1.32A.11.11,0,0,0,60.68,9Z"/><path class="cls-6" d="M60.46,5a.16.16,0,0,0-.15-.06.17.17,0,0,0-.15.18,1.14,1.14,0,0,1-.33,1,.62.62,0,0,1-.45.17.18.18,0,0,0-.21.12.16.16,0,0,0,.12.2.91.91,0,0,0,.76-.24,1.42,1.42,0,0,0,.44-1.31A.12.12,0,0,0,60.46,5Z"/><path class="cls-6" d="M56.24,5.07A.17.17,0,0,0,56.09,5a.17.17,0,0,0-.15.19,1.12,1.12,0,0,1-.33,1,.65.65,0,0,1-.45.17.17.17,0,0,0-.21.12.16.16,0,0,0,.12.2.93.93,0,0,0,.76-.24,1.44,1.44,0,0,0,.45-1.32A.2.2,0,0,0,56.24,5.07Z"/><path class="cls-6" d="M55.75,1.66a.15.15,0,0,0-.16,0,.18.18,0,0,0-.1.22,1.11,1.11,0,0,1-.06,1.08.66.66,0,0,1-.39.28.17.17,0,0,0-.17.16.16.16,0,0,0,.16.17.91.91,0,0,0,.68-.42,1.44,1.44,0,0,0,.1-1.39A.13.13,0,0,0,55.75,1.66Z"/><path class="cls-6" d="M58.72,2.88a.18.18,0,0,0-.15-.07.17.17,0,0,0-.15.19,1.11,1.11,0,0,1-.33,1,.64.64,0,0,1-.45.18.17.17,0,0,0-.21.12.17.17,0,0,0,.12.2.94.94,0,0,0,.76-.24A1.44,1.44,0,0,0,58.75,3,.11.11,0,0,0,58.72,2.88Z"/><path class="cls-6" d="M61.05,1.58a.17.17,0,0,0-.3.11,1.1,1.1,0,0,1-.32,1A.72.72,0,0,1,60,2.9a.15.15,0,0,0-.2.11.16.16,0,0,0,.11.21A.93.93,0,0,0,60.64,3a1.44,1.44,0,0,0,.45-1.32A.2.2,0,0,0,61.05,1.58Z"/><path class="cls-6" d="M65.43,9.3l-.08-.05a.17.17,0,0,0-.21.1,1.1,1.1,0,0,1-.72.81.67.67,0,0,1-.48,0,.17.17,0,0,0-.22.26,1,1,0,0,0,.79.08,1.4,1.4,0,0,0,.95-1A.22.22,0,0,0,65.43,9.3Z"/><path class="cls-6" d="M49.34,12.81l0,0a.16.16,0,0,0-.23.05,1.1,1.1,0,0,1-.88.63.72.72,0,0,1-.47-.13.16.16,0,1,0-.26.2.9.9,0,0,0,.75.26A1.39,1.39,0,0,0,49.35,13,.17.17,0,0,0,49.34,12.81Z"/><path class="cls-6" d="M47.83,9.56a.1.1,0,0,0,0,0,.16.16,0,0,0-.22.07,1.12,1.12,0,0,1-.83.7.59.59,0,0,1-.47-.1.17.17,0,1,0-.25.23.93.93,0,0,0,.77.2,1.44,1.44,0,0,0,1.08-.87A.17.17,0,0,0,47.83,9.56Z"/><path class="cls-6" d="M36.9,11.34s0,0,0-.06a.18.18,0,0,0-.15-.19,1.08,1.08,0,0,1-.94-.52.63.63,0,0,1-.08-.48.16.16,0,0,0-.08-.22.16.16,0,0,0-.22.07.92.92,0,0,0,.08.79,1.44,1.44,0,0,0,1.21.7A.2.2,0,0,0,36.9,11.34Z"/><path class="cls-6" d="M39,9.54a.08.08,0,0,0,0,0,.17.17,0,0,0-.15-.19,1.09,1.09,0,0,1-.94-.52.71.71,0,0,1-.09-.48.16.16,0,0,0-.07-.22.17.17,0,0,0-.23.07.93.93,0,0,0,.09.79,1.45,1.45,0,0,0,1.21.7A.16.16,0,0,0,39,9.54Z"/><path class="cls-6" d="M41.75,7a.14.14,0,0,0,0-.06.16.16,0,0,0-.15-.18,1.13,1.13,0,0,1-.95-.53.68.68,0,0,1-.08-.48.16.16,0,0,0-.07-.22.17.17,0,0,0-.23.07.93.93,0,0,0,.09.79,1.41,1.41,0,0,0,1.2.7A.17.17,0,0,0,41.75,7Z"/><path class="cls-6" d="M45.93,4.18a.05.05,0,0,0,0,0,.16.16,0,0,0-.11-.21A1.08,1.08,0,0,1,45,3.23a.59.59,0,0,1,0-.48.17.17,0,0,0,0-.24.17.17,0,0,0-.23,0,1,1,0,0,0-.06.8,1.42,1.42,0,0,0,1,.9A.16.16,0,0,0,45.93,4.18Z"/><path class="cls-6" d="M41.43,9a.14.14,0,0,0,0-.06.17.17,0,0,0-.15-.18,1.11,1.11,0,0,1-.94-.53.6.6,0,0,1-.08-.47.18.18,0,0,0-.08-.23.16.16,0,0,0-.22.08.9.9,0,0,0,.08.78,1.43,1.43,0,0,0,1.21.7A.15.15,0,0,0,41.43,9Z"/><path class="cls-6" d="M39.22,11.64a.08.08,0,0,0,0-.05.17.17,0,0,0-.15-.19,1.15,1.15,0,0,1-1-.52.68.68,0,0,1-.08-.48.16.16,0,0,0-.07-.22.17.17,0,0,0-.23.07.93.93,0,0,0,.09.79,1.43,1.43,0,0,0,1.2.7A.18.18,0,0,0,39.22,11.64Z"/><path class="cls-6" d="M44.07,6.48s0,0,0-.06a.17.17,0,0,0-.15-.18A1.13,1.13,0,0,1,43,5.72a.63.63,0,0,1-.08-.48A.18.18,0,0,0,42.84,5a.17.17,0,0,0-.23.08.93.93,0,0,0,.09.79,1.43,1.43,0,0,0,1.2.69A.17.17,0,0,0,44.07,6.48Z"/><path class="cls-6" d="M35.21,13.33a.14.14,0,0,0,0-.06.18.18,0,0,0-.15-.19,1.08,1.08,0,0,1-.94-.52.63.63,0,0,1-.08-.48.17.17,0,0,0-.08-.22.16.16,0,0,0-.22.07.92.92,0,0,0,.08.79,1.43,1.43,0,0,0,1.21.7A.15.15,0,0,0,35.21,13.33Z"/><path class="cls-11" d="M9.93,23.75c9.94-.78,8.77-1.17,16.75-2.14a53.16,53.16,0,0,1,14.82.07.77.77,0,0,0-.44-.22A28.16,28.16,0,0,1,34,19.81c-3-1.27-3-2.86-4.63-2.59-8.47,1.46-18.66,3.49-27,5.22-.92.19-2,.71-2.3,1.48A73,73,0,0,0,9.93,23.75Z"/><path class="cls-12" d="M.06,24.58c13.61,1.66,27.37.2,41-1.61a.76.76,0,0,0,.44-1.29,53.16,53.16,0,0,0-14.82-.07c-8,1-6.81,1.36-16.75,2.14a73,73,0,0,1-9.88.17A1.07,1.07,0,0,0,.06,24.58Z"/><path class="cls-13" d="M44.65,27a1.25,1.25,0,0,0,.46.48c.46.22,1-.19,1.16-.68a2.57,2.57,0,0,0-.18-1.49A47,47,0,0,0,50.35,31c.55.63,1.46,1.3,2.12.78a10.85,10.85,0,0,0-.39-3.1,5.14,5.14,0,0,0,5.11,2,11.74,11.74,0,0,0-1.91-5.07,11.45,11.45,0,0,0,4.08,1.48c.63.1,1.48,0,1.62-.62a1.36,1.36,0,0,0-.11-.71A11.11,11.11,0,0,0,58,21.46a8,8,0,0,0,4.57,2.21c1.62.2,3.61-.38,4-2s-1-3.15-2.32-4.24a1.38,1.38,0,0,0,2.26-.93c0-.85-.86-1.42-1.61-1.81a19.44,19.44,0,0,0-16.42-.33c-1.83.8-4.95,2.25-5.84,4.2C41.63,21,43.34,25,44.65,27Z"/><path class="cls-14" d="M48.44,22.12a.2.2,0,0,0-.11-.06.16.16,0,0,0-.19.13,1.14,1.14,0,0,1-.59.91.67.67,0,0,1-.49,0,.17.17,0,0,0-.23.06.18.18,0,0,0,.06.23.88.88,0,0,0,.79,0,1.42,1.42,0,0,0,.79-1.15A.19.19,0,0,0,48.44,22.12Z"/><path class="cls-14" d="M46.39,21a.23.23,0,0,0-.07-.1.17.17,0,0,0-.23.06,1.13,1.13,0,0,1-.88.63.72.72,0,0,1-.47-.13.16.16,0,0,0-.24,0,.16.16,0,0,0,0,.23.9.9,0,0,0,.75.26,1.41,1.41,0,0,0,1.14-.78A.18.18,0,0,0,46.39,21Z"/><path class="cls-14" d="M51,21.74a.13.13,0,0,0-.1-.06.17.17,0,0,0-.2.13,1.14,1.14,0,0,1-.59.91.64.64,0,0,1-.48,0,.17.17,0,0,0-.23.06.17.17,0,0,0,.05.23,1,1,0,0,0,.8,0,1.42,1.42,0,0,0,.78-1.15A.15.15,0,0,0,51,21.74Z"/><path class="cls-14" d="M52.4,17.67a.16.16,0,0,0-.12,0,.17.17,0,0,0-.14.19,1.1,1.1,0,0,1-.25,1.05.62.62,0,0,1-.44.2.18.18,0,0,0-.2.13.16.16,0,0,0,.13.2.92.92,0,0,0,.74-.29,1.42,1.42,0,0,0,.35-1.34A.15.15,0,0,0,52.4,17.67Z"/><path class="cls-14" d="M56.19,21.76A.16.16,0,0,0,56,21.7a.17.17,0,0,0-.15.18,1.08,1.08,0,0,1-.33,1,.6.6,0,0,1-.45.17.17.17,0,0,0-.09.33,1,1,0,0,0,.76-.24,1.45,1.45,0,0,0,.45-1.32A.36.36,0,0,0,56.19,21.76Z"/><path class="cls-14" d="M52.14,25.14A.15.15,0,0,0,52,25a.16.16,0,0,0-.21.09,1.1,1.1,0,0,1-.76.77.69.69,0,0,1-.48,0,.17.17,0,1,0-.22.25.93.93,0,0,0,.78.12,1.41,1.41,0,0,0,1-1A.28.28,0,0,0,52.14,25.14Z"/><path class="cls-14" d="M53.92,21.22a.19.19,0,0,0-.13-.1.15.15,0,0,0-.16.15,1,1,0,0,1-.42.91.58.58,0,0,1-.44.08.13.13,0,0,0-.2.06.2.2,0,0,0,.08.23.82.82,0,0,0,.73-.08,1.27,1.27,0,0,0,.56-1.16A.2.2,0,0,0,53.92,21.22Z"/><path class="cls-14" d="M56.05,16.88a.17.17,0,0,0-.15-.05.13.13,0,0,0-.11.18,1,1,0,0,1-.13,1,.54.54,0,0,1-.4.2.14.14,0,0,0-.17.12.18.18,0,0,0,.14.19.77.77,0,0,0,.67-.28A1.3,1.3,0,0,0,56.1,17,.16.16,0,0,0,56.05,16.88Z"/><path class="cls-14" d="M59.39,18.63a.18.18,0,0,0-.16,0,.14.14,0,0,0-.07.2,1,1,0,0,1,.08,1,.54.54,0,0,1-.34.27.13.13,0,0,0-.14.16.17.17,0,0,0,.18.15.78.78,0,0,0,.59-.41,1.29,1.29,0,0,0-.08-1.3S59.41,18.65,59.39,18.63Z"/><path class="cls-15" d="M60.78,50.82c.18.87.85,2,1.65,1.59a1.5,1.5,0,0,0,.61-.82,17.64,17.64,0,0,0,1.24-7.5A42.45,42.45,0,0,0,78.79,69.36a9.79,9.79,0,0,0,.55-8.8,50.27,50.27,0,0,0,11.31,14l1.14-4.49a13.39,13.39,0,0,0,11.82,7.25,49,49,0,0,0-7.79-21.93c1.64,2.05,4.33,4.31,6.55,2.9a41.77,41.77,0,0,0-7.75-18.93,27.62,27.62,0,0,0,4.14,2.33c1.07-.88.26-2.59-.63-3.65A73.5,73.5,0,0,0,84.62,25.46c-3.54-2.53-7.67-4.83-12-4.3C58.23,22.92,58.54,40.37,60.78,50.82Z"/><path class="cls-16" d="M70.78,58.73C71.42,60,72.66,61.53,74,61c.92-.4,1.15-1.57,1.21-2.57a26.64,26.64,0,0,0-1.75-11.14A55,55,0,0,0,82,61.56c.84,1,2.46,2,3.3,1a2.32,2.32,0,0,0,0-2.19,85.55,85.55,0,0,0-6.17-14.12,16.22,16.22,0,0,0,7.48,7A36,36,0,0,0,80.74,40q3.35,3.24,6.92,6.22c.68.56,1.71,1.11,2.35.5a70.17,70.17,0,0,0-5.36-12.48L92.54,38a4.33,4.33,0,0,0-1.06-3.06c-2.27-3.37-4.59-6.8-7.77-9.34s-7.41-4.07-11.35-3.08c-3.37.84-6.44,3.47-8.55,6.16-2.36,3-.86,4.68-.2,8A88.59,88.59,0,0,0,70.78,58.73Z"/><path class="cls-17" d="M65.9,33.29a8,8,0,0,0,1.55,2.79,2.8,2.8,0,0,0,2.9.87,8.89,8.89,0,0,0,.57-5.17,9.29,9.29,0,0,0,1.78,1.53,2.76,2.76,0,0,0,1.91.58,2.17,2.17,0,0,0,1.54-2.19A6.23,6.23,0,0,0,75.27,29a5.66,5.66,0,0,0,2.6,1.37,2,2,0,0,0,2.25-1.45c.11-1-.84-1.79-1.69-2.36a5.86,5.86,0,0,0,2.35.16,2,2,0,0,0,1.65-1.5,2.17,2.17,0,0,0-1-1.94A14.08,14.08,0,0,0,73,21.16c-8.09,1-11.54,6.92-12.62,13.78q0,.31.06.6C61.18,42,65.46,37.43,65.9,33.29Z"/><path class="cls-18" d="M41.25,17.63a3.24,3.24,0,1,0,2.48-3.69A3.14,3.14,0,0,0,41.25,17.63Z"/><path class="cls-12" d="M42.46,15.76a2.11,2.11,0,0,0,.68,3,2.42,2.42,0,0,0,3.21-.72,2.11,2.11,0,0,0-.68-3A2.43,2.43,0,0,0,42.46,15.76Z"/><path class="cls-19" d="M42.37,15a.91.91,0,0,0,.29,1.3A1.05,1.05,0,0,0,44,16a.91.91,0,0,0-.3-1.3A1,1,0,0,0,42.37,15Z"/></g></g></svg>