<svg xmlns="http://www.w3.org/2000/svg" viewBox="0 0 69.57 118.61"><defs><style>.cls-1{fill:#7785c7;}.cls-2{fill:#5b6ba5;}.cls-3{fill:#6c9ac4;}.cls-4{fill:#3c3c3b;}.cls-5{fill:#b0c0e0;}.cls-6{fill:#ffe7db;}.cls-7{fill:#4c4c4b;}.cls-17,.cls-8{fill:#fed0a9;}.cls-8{opacity:0.5;}.cls-9{fill:#5c6999;}.cls-10{fill:#1d1d1b;opacity:0.1;}.cls-11{fill:#5e6cbc;}.cls-12{fill:#434fbf;}.cls-13{fill:#4757b2;}.cls-14{fill:#407e7e;}.cls-15{fill:#669898;}.cls-16{fill:#d3996a;}</style></defs><title>EmployeeAsset 1Employee</title><g id="Layer_2" data-name="Layer 2"><g id="Layer_1-2" data-name="Layer 1"><path class="cls-1" d="M53.49,35c-.39.52-.56,1.21-1.08,1.61a2.81,2.81,0,0,1-1.57.43l-1.5.1a3.17,3.17,0,0,1,1-2.44c1-.93,2.63-1.13,3.47-2.23.12-.14.22-.32.4-.38a.56.56,0,0,1,.56.15,1.19,1.19,0,0,1-.1,1.55C54.34,34.26,53.84,34.57,53.49,35Z"/><path class="cls-1" d="M12.32,58.77c0-.12,0-.24,0-.35V20.89a6.16,6.16,0,0,1,12.32,0V58.42c0,.11,0,.23,0,.35Z"/><rect class="cls-2" x="12.31" y="25.75" width="12.34" height="6.27"/><rect class="cls-3" x="12.31" y="32.02" width="12.34" height="20.1"/><rect class="cls-4" x="17.03" y="13.13" width="2.81" height="1.88"/><rect class="cls-2" x="11.7" y="58.12" width="13.56" height="1.94" rx="0.96"/><path class="cls-1" d="M29,58.77c0-.12,0-.24,0-.35V20.89a6.16,6.16,0,1,1,12.31,0V58.42c0,.11,0,.23,0,.35Z"/><rect class="cls-2" x="28.99" y="25.75" width="12.34" height="6.27"/><rect class="cls-3" x="28.99" y="32.02" width="12.34" height="20.1"/><rect class="cls-4" x="33.7" y="13.13" width="2.81" height="1.88"/><rect class="cls-2" x="28.37" y="58.12" width="13.56" height="1.94" rx="0.96"/><path class="cls-5" d="M53.37,36.69a14.11,14.11,0,0,1-2.5,3.91h0a20.5,20.5,0,0,1-1.88,2l0,0s0,0,0,0c-2.72,2.54-5.89,5.2-6.71,5.42l-.22.06a3.74,3.74,0,0,1-3.11-.29l-.23-.13-.09-.06a3.81,3.81,0,0,1-1.4-1.86l0-.08a3.7,3.7,0,0,1-.2-1.54A1.49,1.49,0,0,1,37,44a4.28,4.28,0,0,1,.35-1.17.18.18,0,0,0,0-.09,3.78,3.78,0,0,1,1.1-1.24,3.26,3.26,0,0,1,.67-.36l.16-.07.25-.09c1.09-.41,2.8-1,4.66-1.6A89.88,89.88,0,0,1,53.37,36.69Z"/><path class="cls-5" d="M44.29,43.63a3.43,3.43,0,0,1-.43,1.17l0,.09a3.82,3.82,0,0,1-3,1.82h-.08a3.73,3.73,0,0,1-1.82-.35,3.62,3.62,0,0,1-1-.69,3.8,3.8,0,0,1-1.17-2.52v0L36.53,40l-.13-2.14h0l-.11-2.16-.14-2.51L36.09,32v-.33L36,30.16h0l0-.32-.14-2.7,0-.82v-.1a3.34,3.34,0,0,1,0-.78,2.75,2.75,0,0,1,.12-.53,3.77,3.77,0,0,1,1.56-2.09,3.83,3.83,0,0,1,1.87-.6h.07a3.57,3.57,0,0,1,.87.06,1.94,1.94,0,0,1,.33.07,3.09,3.09,0,0,1,.68.26,3.43,3.43,0,0,1,.89.61,1.07,1.07,0,0,1,.19.18l.18.22a1.18,1.18,0,0,1,.17.22,3.77,3.77,0,0,1,.49.93,4.22,4.22,0,0,1,.2.95v.09l.21,3.86.05.9,0,.31,0,.74,0,.31L43.83,33l0,.3,0,1.08.45,8.37A3.43,3.43,0,0,1,44.29,43.63Z"/><path class="cls-1" d="M22.12,117.43v1.18H5.43s-.79-2.52.65-3.39c2.11-1.29,5-.54,7.08-2.36a4.86,4.86,0,0,1,.91-.64l.33-.17a5.86,5.86,0,0,1,2.56-.58,8.83,8.83,0,0,1,1.81.17c.39.07.75.16,1.09.25l.21.06.94.3a.65.65,0,0,1,.28.25C21.67,113,22.15,114.37,22.12,117.43Z"/><polygon class="cls-1" points="21.49 106.45 21.37 109.94 21.34 110.74 21.29 112.5 21.28 112.73 21.22 114.56 20.13 114.36 19.82 114.31 18.64 114.1 18.61 114.09 14.31 113.35 14.4 112.05 14.42 111.73 14.54 109.83 14.54 109.67 14.75 106.44 19.75 106.45 21.49 106.45"/><path class="cls-5" d="M40.25,27.49s-.52,5.58-1.07,12.79c0,.3,0,.6-.07.9-.13,1.64-.25,3.37-.37,5.11,0,.5-.07,1-.1,1.5-.13,2-.25,3.93-.36,5.86,0,.69-.07,1.38-.1,2.07-.07,1.36-.12,2.7-.17,4-.07,2-.11,3.85-.11,5.49a23.39,23.39,0,0,1-8.12,3.09,17.4,17.4,0,0,1-2.24.24c-.33,0-.67,0-1,0a13.7,13.7,0,0,1-1.69-.11,23.39,23.39,0,0,1-9.21-3.23v-.06h0c0-1,0-1.87,0-2.74h0c0-2.61,0-4.83-.09-6.75,0-.75,0-1.45-.06-2.11a110.79,110.79,0,0,0-1.19-13.37c-.44-3.4-1-7.66-1.51-15.39l.87-2.67c14.48-6.35,12.2-6.4,27,.26C40.69,24,40.36,26,40.25,27.49Z"/><path class="cls-5" d="M27.11,64.35a2.75,2.75,0,0,1,0,.34.78.78,0,0,0,0,.16h0c0,.1,0,.18,0,.2a.75.75,0,0,1,0,.16c0,.3-.13,1-.21,1.6s-.15,1.07-.2,1.4a2.89,2.89,0,0,1,0,.29c-.07.58-.15,1.15-.22,1.7,0,.22-.07.45-.11.68s-.07.54-.11.81c-.17,1.12-.34,2.17-.51,3.17-.16.83-.31,1.63-.48,2.41h0c-.07.35-.15.7-.23,1s-.22.87-.32,1.3c-.17.59-.33,1.19-.51,1.79-.14.45-.28.91-.44,1.38h0c-.1.31-.2.61-.33.92h-.14l-1-.06-1.55-.11h-.14l-.56,0-2-.15-2-.15h-.2l-1.19-.08c-.06-.52-.11-1-.17-1.5q0-.44-.06-.9a61.51,61.51,0,0,1,.14-7.19c0-.09,0-.19,0-.28s0-.27,0-.41h0a1.7,1.7,0,0,1,0-.22c0-.16,0-.33,0-.5a.31.31,0,0,0,0-.1l.06-.72a1.94,1.94,0,0,0,0-.24c.1-1,.19-2,.3-3,0,0,0,0,0,0s0-.19,0-.28v0c0-.23,0-.47.07-.7.06-.53.13-1,.19-1.55.14-1.19.29-2.26.41-3.15h0c.1-.72.18-1.32.26-1.77v0s0,0,0,0c0-.17,0-.33.07-.45l.06-.4.6.24.66.27,1,.44,2.39,1,1,.4,1.78.76.34.13,1.56.66,1.62.69s0,0,.07,0Z"/><path class="cls-5" d="M23.94,91.53v.89l0,1c0,.48,0,1,0,1.47l0,1.11c-.23,5.91-.72,10.94-.77,12.24,0,.77-.71,1.33-1.71,1.69a8.08,8.08,0,0,1-1.13.29c-.14,0-.28,0-.43.06l-.44,0a11.83,11.83,0,0,1-2.59,0h0a7.36,7.36,0,0,1-2.23-.62h0a2.69,2.69,0,0,1-1.32-1.11h0a1.49,1.49,0,0,1-.2-.8c0-2.24,0-4.39,0-6.47,0-1.86,0-3.67.09-5.42l0-.66c0-.39,0-.77,0-1.15,0-.58,0-1.15.07-1.71h0a3.29,3.29,0,0,1,0-.45c0-.3,0-.61,0-.89h0c0-.11,0-.21,0-.3.17-2.92.44-5.74.84-8.53a1.72,1.72,0,0,1,.15-.53,2.94,2.94,0,0,1,1-1l.15-.1A3.12,3.12,0,0,1,16.82,80a6.56,6.56,0,0,1,3.59,1.09l.79.42.2.1a.8.8,0,0,0,.16.08l.89.49c.36.2.75.4,1.16.61h0c.18,2,.28,4,.31,6.15v.14C24,89.92,24,90.72,23.94,91.53Z"/><path class="cls-1" d="M48.66,118.61H32v-1.18c0-3.06.46-4.42.84-4.93a.6.6,0,0,1,.28-.25c.32-.11.66-.22,1-.33s.72-.19,1.12-.26l.08,0a8.83,8.83,0,0,1,1.81-.17,5.89,5.89,0,0,1,2.56.58l.33.17a4.86,4.86,0,0,1,.91.64c2.11,1.82,5,1.07,7.07,2.36C49.45,116.09,48.66,118.61,48.66,118.61Z"/><polygon class="cls-1" points="39.77 113.35 35.47 114.09 35.44 114.1 35.01 114.18 34.5 114.27 32.87 114.56 32.8 112.73 32.8 112.5 32.74 110.74 32.72 109.94 32.6 106.45 34.73 106.45 39.33 106.44 39.54 109.67 39.55 109.83 39.67 111.73 39.69 112.05 39.77 113.35"/><path class="cls-5" d="M39.86,78.71c0,.93,0,1.81-.1,2.6h0c0,.09,0,.19,0,.28,0,.34-.08.68-.11,1h0c0,.16,0,.3-.05.46H39.5l-.83.06-.29,0h-.19l-.47,0h-.07l-1.49.11-.74.05-1.58.13-.24,0h-.11l-1.56.11-1.13.07c-.11-.31-.21-.62-.32-.92a54.9,54.9,0,0,1-1.63-6.09c-.06-.28-.11-.55-.17-.83,0-.11,0-.21-.06-.32l-.18-1s0,0,0,0l-.12-.69c-.06-.39-.12-.78-.18-1.19,0,0,0,0,0-.06s0-.08,0-.12h0c-.05-.31-.1-.64-.15-1l-.15-1,0-.23,0-.24c0-.2-.06-.4-.09-.6a2.7,2.7,0,0,0,0-.28c0-.19-.05-.37-.07-.56l0-.28c0-.32-.11-.83-.19-1.35-.11-.87-.23-1.75-.23-1.81s0-.1,0-.2h0c0-.18-.07-.39-.08-.5l.08,0,.06,0L34.86,61l.72-.31c1.27-.53,2.21-.93,2.43-1h.05s.37,2.28.77,5.49c.12.95.24,2,.36,3.07.26,2.39.49,5,.6,7.42C39.85,76.72,39.87,77.75,39.86,78.71Z"/><path class="cls-5" d="M41.07,107.74a1.58,1.58,0,0,1-.2.8h0a2.74,2.74,0,0,1-1.32,1.11h0a5,5,0,0,1-1,.37,10.44,10.44,0,0,1-3.24.34c-.2,0-.39,0-.59,0a7.47,7.47,0,0,1-.86-.11,7.59,7.59,0,0,1-1.12-.29c-1-.36-1.69-.92-1.71-1.69-.07-1.64-.83-9.27-.87-17.06,0-2.86.07-5.75.32-8.37h0l1.16-.61.88-.49.17-.08.87-.46.25-.13a6.29,6.29,0,0,1,3.46-1l.14,0a2.43,2.43,0,0,1,.62.15,3,3,0,0,1,.6.28.56.56,0,0,1,.15.1,2.84,2.84,0,0,1,.45.36h0a2.25,2.25,0,0,1,.51.68,1.49,1.49,0,0,1,.15.53l0,.15c.08.49.14,1,.2,1.47,0,.23.06.47.08.71.14,1.08.24,2.18.34,3.28C41.05,93.86,41.07,100.32,41.07,107.74Z"/><path class="cls-1" d="M38.28,53.65c0,.69-.07,1.38-.1,2.07-.88,0-1.78.08-2.67.1-4.46.13-9.14.1-14.1,0H21c-1.62,0-3.28-.1-5-.16h-.47c0-.75,0-1.45-.06-2.11l.45,0q3.91.21,7.63.3l2.87.06c3,0,5.84,0,8.63-.1C36.15,53.76,37.22,53.71,38.28,53.65Z"/><path class="cls-1" d="M32.5,19.58c0,2.16-2.47,3.91-5.53,3.91s-5.52-1.75-5.52-3.91a2.86,2.86,0,0,1,.15-.92l.77-.34h.07l.42-.1h.07l.44.12.7.2,1.95.53h0l1,.26L28,19.05l2.11-.58.7-.2.16,0h.09l.21.05.24.06.4.2.43.22A2.68,2.68,0,0,1,32.5,19.58Z"/><path class="cls-6" d="M23.11,14.28l0,1.16h0l0,1.79,0,1.84a.09.09,0,0,0,0,.05c.16,1.42,1.61,2.16,3.19,2.29a4.89,4.89,0,0,0,.54,0,6.11,6.11,0,0,0,.86-.06c1.55-.21,2.91-1,3-2.26v-.05l0-1.87h0l0-1.69h0l0-1Z"/><path class="cls-6" d="M33.87,10c-.18.82-.59,1.92-1,2.09s-.71-.14-.74-.15a9.23,9.23,0,0,1-.77,2.87,20.09,20.09,0,0,1-1.24,1.72,3.3,3.3,0,0,1-3,1.2h0A3.32,3.32,0,0,1,24,16.54c-.36-.42-.75-1-1.26-1.71A9,9,0,0,1,21.9,12a.58.58,0,0,1-.74.16c-.46-.16-.88-1.26-1.08-2.08a1.39,1.39,0,0,1,.35-1.5.62.62,0,0,1,.38-.12h0a.77.77,0,0,1,.42.12A13.63,13.63,0,0,1,21,7.14a7.09,7.09,0,0,1,.2-2.4,5.37,5.37,0,0,1,1.22-2.23h0A5.93,5.93,0,0,1,26.41.73h0a3.91,3.91,0,0,1,.49,0,5.58,5.58,0,0,1,5.75,4,7.46,7.46,0,0,1,.21,2.32,10,10,0,0,1-.18,1.42.85.85,0,0,1,.43-.13.66.66,0,0,1,.44.16A1.44,1.44,0,0,1,33.87,10Z"/><path class="cls-7" d="M33.13,8.35a1.52,1.52,0,0,0-.78,1.09,8.74,8.74,0,0,0-.21,1.17c-.38.11-.55.13-.89.25.09-.34.16-.66.23-1a17.1,17.1,0,0,0,.44-4.08,9.47,9.47,0,0,0-.12-1.06c-.4-2.6-2.08,0-4.82-.26-2.37-.26-4.36-1.38-4.73-.34a3.31,3.31,0,0,0-.14.6,13,13,0,0,0,.35,5.1c.08.34.16.7.26,1.08-.35-.12-.51-.14-.89-.24a7.8,7.8,0,0,0-.27-1.29,1.47,1.47,0,0,0-.75-1h0a12.09,12.09,0,0,1,0-3.69A6.77,6.77,0,0,1,22,2c1.58-2.35,7.57-2.84,9.94-.07a5.43,5.43,0,0,1,1.33,2.85A13.7,13.7,0,0,1,33.13,8.35Z"/><path class="cls-8" d="M32.07,6.94h0l-.26-.06a12.48,12.48,0,0,0-2.63-.3,4.71,4.71,0,0,0-1.87.29L27,7l-.3-.15a4.54,4.54,0,0,0-1.84-.29h0a11.6,11.6,0,0,0-1.63.12l-.26,0-.74.14-.29.07a.28.28,0,0,0-.2.27l.06,1.54a2.15,2.15,0,0,0,.67,1.42,3.89,3.89,0,0,0,.6.42l.33.17.23.12a1.61,1.61,0,0,0,.69.18,1.12,1.12,0,0,0,.47-.11,2,2,0,0,0,.79-.83l.39-.69a1.21,1.21,0,0,1,1-.62,1.23,1.23,0,0,1,1.06.62l.39.69a1.51,1.51,0,0,0,1.25.94,1.54,1.54,0,0,0,.69-.18,3.9,3.9,0,0,0,1.39-.94A2.16,2.16,0,0,0,32,9.58a2.93,2.93,0,0,0,.23-.83l.05-1.54A.27.27,0,0,0,32.07,6.94Z"/><path class="cls-9" d="M32.24,6.28c-1.63-.41-4.05-.6-5.25,0-1.19-.58-3.62-.39-5.24,0a1,1,0,0,0-.72,1l.06,1.57c.2,1.41.77,2,2.22,2.69a2,2,0,0,0,2.84-1.05l.39-.69a.53.53,0,0,1,.91,0l.39.69a2,2,0,0,0,2.84,1.05c1.45-.7,2-1.28,2.22-2.69L33,7.24A1,1,0,0,0,32.24,6.28Zm0,2.47a2.93,2.93,0,0,1-.23.83,2.16,2.16,0,0,1-.22.36,3.9,3.9,0,0,1-1.39.94,1.54,1.54,0,0,1-.69.18,1.51,1.51,0,0,1-1.25-.94l-.39-.69A1.23,1.23,0,0,0,27,8.81a1.21,1.21,0,0,0-1,.62l-.39.69a2,2,0,0,1-.79.83,1.12,1.12,0,0,1-.47.11,1.61,1.61,0,0,1-.69-.18l-.23-.12L23,10.59a3.89,3.89,0,0,1-.6-.42,2.15,2.15,0,0,1-.67-1.42l-.06-1.54a.28.28,0,0,1,.2-.27l.29-.07.74-.14.26,0a11.6,11.6,0,0,1,1.63-.12h0a4.54,4.54,0,0,1,1.84.29L27,7l.3-.15a4.71,4.71,0,0,1,1.87-.29,12.48,12.48,0,0,1,2.63.3l.26.06h0a.27.27,0,0,1,.2.27Z"/><path class="cls-1" d="M32.33,6a13.7,13.7,0,0,0-3.17-.4A5.89,5.89,0,0,0,27,5.88a5.8,5.8,0,0,0-2.16-.33,13.63,13.63,0,0,0-3.17.4,1.28,1.28,0,0,0-1,1.3l.06,1.58v0a3.47,3.47,0,0,0,2.41,2.94,2.58,2.58,0,0,0,1.13.28,2.47,2.47,0,0,0,2.15-1.46l.39-.69A.19.19,0,0,1,27,9.84a.17.17,0,0,1,.16.09l.39.69a2.49,2.49,0,0,0,2.15,1.46,2.58,2.58,0,0,0,1.14-.28,3.47,3.47,0,0,0,2.41-2.94v0l.06-1.58A1.3,1.3,0,0,0,32.33,6Zm.23,2.83c-.18,1.21-.62,1.73-2,2.41a1.93,1.93,0,0,1-.84.21,1.9,1.9,0,0,1-1.55-1.12l-.39-.68A.86.86,0,0,0,27,9.16a.84.84,0,0,0-.75.44l-.39.68a1.9,1.9,0,0,1-1.56,1.12,1.92,1.92,0,0,1-.83-.21c-1.41-.68-1.85-1.2-2-2.41l-.06-1.55a.61.61,0,0,1,.46-.62,13.24,13.24,0,0,1,3-.37,4.78,4.78,0,0,1,2,.33l.15.07.15-.07a4.86,4.86,0,0,1,2-.33,13.24,13.24,0,0,1,3,.37.62.62,0,0,1,.46.62Z"/><path class="cls-10" d="M50.86,40.6a20.5,20.5,0,0,1-1.88,2l0,0s0,0,0,0c-2.72,2.54-5.89,5.2-6.71,5.42l-.22.06a3.74,3.74,0,0,1-3.11-.29l-.23-.13c-.13,2-.25,3.93-.36,5.86,0,.69-.07,1.38-.1,2.07l-22.64-.1c0-.75,0-1.45-.06-2.11a110.79,110.79,0,0,0-1.19-13.37,65.52,65.52,0,0,1,1.85-12.82L17,38.83,24.38,44l12.2-2.83.8-.18.32-14.56,1.48,13.87.09.83.59,5.56h0a12.7,12.7,0,0,0,3.45-1.15h0A45.65,45.65,0,0,0,50.86,40.6Z"/><path class="cls-1" d="M27.92,45l1.33.4c-.15.67-.29,1.33-.44,2l-4-.11a.47.47,0,0,1-.17,0,.38.38,0,0,1-.11-.14c-.26-.5-1.24-.86-1.42-1.39.85-.23,2.48-.59,3.35-.77a2.67,2.67,0,0,1,.79-.09A3.41,3.41,0,0,1,27.92,45Z"/><path class="cls-1" d="M30.6,13.52v1.7A4,4,0,0,1,30,17.44a3.87,3.87,0,0,1-.61.72,3.4,3.4,0,0,1-2.31.91h-.11a3.4,3.4,0,0,1-2.31-.91A4.5,4.5,0,0,1,24,17.5a4.09,4.09,0,0,1-.69-2.28v-1.7C25.65,10.47,28.1,10.33,30.6,13.52Z"/><path class="cls-9" d="M24.66,18.21l-.6-.05-.32,0h-.09a1.39,1.39,0,0,1-.9-.45,1.36,1.36,0,0,1-.24-.38L22,16a1.4,1.4,0,0,1-.1-.61h0a1.91,1.91,0,0,1,.06-.33,1.26,1.26,0,0,1,.24-.44v0l.58-.53.59-.55,0,0a13.25,13.25,0,0,0,.8,3.95,3.11,3.11,0,0,0,.44.69Z"/><path class="cls-9" d="M32,16l-.54,1.28a1.49,1.49,0,0,1-.18.3,1.39,1.39,0,0,1-1,.53h-.09l-.32,0-.6.05.05-.05a3.42,3.42,0,0,0,.47-.74,13.3,13.3,0,0,0,.77-3.9l0,0,.49.45.63.58.05,0a1.48,1.48,0,0,1,.25.46,1.91,1.91,0,0,1,.06.33h0A1.4,1.4,0,0,1,32,16Z"/><path class="cls-11" d="M29.27,16.41A2.3,2.3,0,1,1,27,14.12,2.3,2.3,0,0,1,29.27,16.41Z"/><path class="cls-12" d="M28.5,16.41A1.53,1.53,0,1,1,27,14.88,1.52,1.52,0,0,1,28.5,16.41Z"/><path class="cls-4" d="M20.73,11.45v0Z"/><path class="cls-4" d="M33.2,11.59h0v0Z"/><path class="cls-12" d="M24.06,18.16c-.09-.2-.19-.4-.3-.61s-.38-.66-.57-.94a10.66,10.66,0,0,0-1.26-1.53c-.48-.47-.95-.76-1.23-.57a.38.38,0,0,0-.16.28,2.23,2.23,0,0,0,.22,1.05c0,.08.07.16.11.25a9.09,9.09,0,0,0,.54,1,.41.41,0,0,0,.05.09l.1.16,0,0,0,0a.22.22,0,0,0,.05.08l0,.08a.86.86,0,0,0,.07.1l.05.08.12.16v0a10.39,10.39,0,0,0,.9,1.07l.15.14.07.07a2.19,2.19,0,0,0,.8.51h0a.43.43,0,0,0,.32-.05C24.51,19.49,24.37,18.86,24.06,18.16Zm-1.92-.45L22,17.44a6,6,0,0,1-1.14-2.52.24.24,0,0,1,.05-.18c.1-.07.49.14,1,.67l.16.17c.15.17.3.34.45.54l.08.1.16.21.06.08.08.13.09.13a8.47,8.47,0,0,1,.51.83l0,0,.11.2.05.1.1.2c.36.77.42,1.26.31,1.34a.27.27,0,0,1-.19,0A5.54,5.54,0,0,1,22.14,17.71Z"/><polygon class="cls-11" points="24.01 19.66 23.89 19.75 23.89 19.75 22.66 20.57 22.66 20.57 22.42 20.73 22.34 20.62 22.11 20.27 22.05 20.18 22.05 20.18 21.35 19.14 21.35 19.14 21.24 18.98 21.24 18.98 20.3 17.59 20.26 17.53 20.26 17.53 20.15 17.37 19.45 16.32 19.39 16.24 19.16 15.89 19.08 15.77 19.32 15.61 19.32 15.61 20.54 14.79 20.66 14.7 20.81 14.92 22.67 17.68 23.86 19.45 24.01 19.66"/><path class="cls-5" d="M19.08,15.77c.34-.23,1.36.7,2.29,2.07s1.4,2.66,1.05,2.89-1.36-.69-2.29-2.06S18.74,16,19.08,15.77Z"/><path class="cls-13" d="M22.17,20.12A7.77,7.77,0,0,0,21.12,18l-.25-.36a7.51,7.51,0,0,0-1.32-1.41.15.15,0,0,0-.16,0,.11.11,0,0,0-.05.14,4.84,4.84,0,0,0,.46,1.13,9.8,9.8,0,0,0,.59,1A7.55,7.55,0,0,0,22,20.27a.14.14,0,0,0,.15,0A.15.15,0,0,0,22.17,20.12Zm-.12.06s0,0,0,0a7.61,7.61,0,0,1-1.55-1.75,8.16,8.16,0,0,1-.55-.91h0a6.24,6.24,0,0,1-.49-1.17.05.05,0,0,1,0,0s0,0,0,0a6.8,6.8,0,0,1,1.24,1.32l.3.42a7.61,7.61,0,0,1,1,2.09s0,0,0,0Z"/><path class="cls-12" d="M21.49,17.76l0-.07c-.59-.86-1.52-1.94-2.12-2.08h0a.38.38,0,0,0-.32.05c-.34.22-.13,1,.24,1.75A10.72,10.72,0,0,0,20,18.75c.7,1,1.95,2.46,2.48,2.1a.4.4,0,0,0,.16-.28h0A5.83,5.83,0,0,0,21.49,17.76Zm.85,2.86c-.16.11-1.06-.5-2.09-2a12.28,12.28,0,0,1-.66-1.11c-.47-.92-.56-1.51-.43-1.59s1,.43,1.92,1.78l.17.25C22.28,19.45,22.51,20.5,22.34,20.62Z"/><path class="cls-11" d="M20.66,14.7c.34-.23,1.37.7,2.29,2.07s1.4,2.66,1.06,2.89S22.64,19,21.72,17.6,20.32,14.93,20.66,14.7Z"/><path class="cls-13" d="M21.37,19.05a4,4,0,0,0-.48-.89,6,6,0,0,0-.41-.55c-.11-.12-.19-.19-.23-.23a.08.08,0,0,0-.1,0,.07.07,0,0,0,0,.09l0,.11a4.68,4.68,0,0,0,.44.78,4.3,4.3,0,0,0,.64.78.09.09,0,0,0,.1,0h0A.07.07,0,0,0,21.37,19.05ZM21.24,19a4.21,4.21,0,0,1-.55-.68,4.85,4.85,0,0,1-.4-.7l0-.06.06.06a5.56,5.56,0,0,1,.49.62,5.87,5.87,0,0,1,.43.77Z"/><path class="cls-12" d="M33.41,14.79a.38.38,0,0,0-.16-.28c-.28-.19-.75.1-1.23.57a10.66,10.66,0,0,0-1.26,1.53c-.17.26-.36.57-.53.88a7,7,0,0,0-.34.67c-.31.7-.45,1.33-.15,1.54a.43.43,0,0,0,.32.05,2.25,2.25,0,0,0,.93-.64l.17-.16a10.84,10.84,0,0,0,.75-.9l.09-.11a.91.91,0,0,1,.11-.16l.11-.17h0l.16-.24.1-.16a.41.41,0,0,0,0-.09,9.09,9.09,0,0,0,.54-1c0-.09.08-.17.11-.25A2.23,2.23,0,0,0,33.41,14.79ZM32,17.44l-.13.18a5.81,5.81,0,0,1-1.78,1.83.27.27,0,0,1-.19,0c-.11-.08,0-.57.31-1.34,0-.06.07-.13.1-.2l.21-.4.1-.17.06-.1c.1-.16.2-.32.32-.49l.09-.13.08-.13.06-.08.08-.1.08-.11.08-.1c.13-.17.26-.33.39-.47l.13-.14.09-.1c.52-.53.91-.74,1-.67s0,.09,0,.18A6,6,0,0,1,32,17.44Z"/><polygon class="cls-11" points="34.87 15.77 34.79 15.89 34.56 16.24 34.5 16.32 33.8 17.37 33.72 17.48 33.69 17.53 32.71 18.98 32.6 19.14 31.9 20.18 31.84 20.27 31.6 20.62 31.52 20.73 31.29 20.57 31.29 20.57 30.06 19.75 29.94 19.66 30.09 19.45 31.33 17.6 33.14 14.92 33.29 14.7 33.41 14.79 34.63 15.61 34.63 15.61 34.87 15.77"/><path class="cls-5" d="M34.87,15.77c-.34-.23-1.36.7-2.29,2.07s-1.4,2.66-1,2.89,1.36-.69,2.29-2.06S35.21,16,34.87,15.77Z"/><path class="cls-13" d="M34.56,16.24a.15.15,0,0,0-.16,0,7,7,0,0,0-1.24,1.31c-.11.14-.21.29-.33.46a7.77,7.77,0,0,0-1,2.11.15.15,0,0,0,.06.15.14.14,0,0,0,.15,0,7.55,7.55,0,0,0,1.57-1.77,10.31,10.31,0,0,0,.65-1.1,6.25,6.25,0,0,0,.41-1A.13.13,0,0,0,34.56,16.24Zm-.47,1.18a8.78,8.78,0,0,1-.61,1,7.61,7.61,0,0,1-1.55,1.75s0,0,0,0,0,0,0,0a7.3,7.3,0,0,1,1-2.09c.13-.19.25-.36.38-.52a6.57,6.57,0,0,1,1.16-1.22s0,0,0,0a.05.05,0,0,1,0,0A6.11,6.11,0,0,1,34.09,17.42Z"/><path class="cls-12" d="M35,15.66a.38.38,0,0,0-.32-.05h0c-.58.13-1.46,1.14-2.06,2l-.1.16a5.66,5.66,0,0,0-1.18,2.81h0a.4.4,0,0,0,.16.28c.53.36,1.78-1.06,2.48-2.1a10.27,10.27,0,0,0,.83-1.46C35.1,16.55,35.27,15.87,35,15.66Zm-3.35,5c-.16-.12.07-1.17,1.1-2.7l.24-.35c.93-1.27,1.7-1.79,1.85-1.68s0,.62-.37,1.47a12.7,12.7,0,0,1-.72,1.23C32.67,20.12,31.77,20.73,31.6,20.62Z"/><path class="cls-11" d="M33.29,14.7c-.34-.23-1.37.7-2.29,2.07s-1.4,2.66-1.06,2.89,1.37-.69,2.29-2.06S33.63,14.93,33.29,14.7Z"/><path class="cls-13" d="M33.8,17.37a.08.08,0,0,0-.1,0l-.13.12h0a5,5,0,0,0-.51.66,4.88,4.88,0,0,0-.49.89.08.08,0,0,0,0,.09.09.09,0,0,0,.1,0,4.3,4.3,0,0,0,.64-.78,5,5,0,0,0,.48-.88h0A.07.07,0,0,0,33.8,17.37Zm-.54.92a5,5,0,0,1-.55.69,4.14,4.14,0,0,1,.43-.77,4.74,4.74,0,0,1,.55-.68A6,6,0,0,1,33.26,18.29Z"/><path class="cls-10" d="M34.76,17.29a10.27,10.27,0,0,1-.83,1.46c-.7,1-1.95,2.46-2.48,2.1a.4.4,0,0,1-.16-.28h0l-1.23-.82a.43.43,0,0,1-.32-.05c-.3-.21-.16-.84.15-1.54l-.6.05.05-.05a3.4,3.4,0,0,1-2.31.91h-.11a3.4,3.4,0,0,1-2.31-.91l.05.05-.6-.05c.31.7.45,1.33.15,1.54a.43.43,0,0,1-.32.05h0l-1.23.82h0a.4.4,0,0,1-.16.28c-.53.36-1.78-1.06-2.48-2.1a10.72,10.72,0,0,1-.78-1.34l.17,0,.18,0,.21,0,.12,0h0l.25,0,.12,0h0l.16,0,.25,0h.14l.21,0,.18,0h.88c.18,0,.36,0,.53,0h.08c.24,0,.48,0,.71-.08l.3-.05L24,17.5l.13,0q.34-.07.69-.18l.31-.1.43-.12a5.77,5.77,0,0,1,2.77,0l.34.1.4.11c.23.07.46.12.7.17l.14,0,.28,0,.29,0c.25,0,.49.06.74.07h.07l.54,0h.89l.18,0,.22,0h.14l.27,0h0l.15,0h.1l.27,0,.12,0,.21,0,.17,0Z"/><path class="cls-14" d="M28.74,49.13c1.33-1.52,2.65-2.29,3.92-2.27a2.94,2.94,0,0,1,2.16,1l-.53.44a2.29,2.29,0,0,0-1.65-.72c-1.06,0-2.19.68-3.37,2Z"/><path class="cls-15" d="M36.87,43.44l-.49-1.2,23.48-9.6a2.44,2.44,0,0,1,1.25-.16l6.17.86-.17,1.27-6.17-.85a1.18,1.18,0,0,0-.59.07Z"/><path class="cls-15" d="M35.91,47.81l-1.16-.42-1,1.49a1.31,1.31,0,0,1-.59.5L31,50.29a1.2,1.2,0,0,1-1.56-.65l-1-2.5-.5.21L29,50a1.7,1.7,0,0,0,2.22.93l2.49-1a2.22,2.22,0,0,0,.78-.55Z"/><rect class="cls-16" x="27.39" y="44.56" width="4.19" height="2.3" transform="translate(-15.11 14.56) rotate(-22.24)"/><path class="cls-16" d="M37.11,44.46a.45.45,0,0,0,.24-.58l-.88-2.15a.44.44,0,0,0-.57-.24l-.49.2,1.21,3Z"/><path class="cls-17" d="M37.64,46.88l-.8-2-1.21-3-.05-.12a.79.79,0,0,0-1-.43l-3.33,1.36a.78.78,0,0,0-.42,1l.05.12L31.73,46l0,.07a.82.82,0,0,0,.26.32l2.75,2.07a.8.8,0,0,0,.76.1l1.69-.7A.77.77,0,0,0,37.64,46.88Z"/><polygon class="cls-14" points="66.99 34.61 67.18 33.29 69.57 33.02 69.2 35.55 66.99 34.61"/><path class="cls-4" d="M10.13,71.38l-.46,0c-5-.28-9.39-5.14-9.64-9A16.17,16.17,0,0,1,3.94,51.29,43.2,43.2,0,0,1,7.4,47.61c.74-.72,1.51-1.47,2.22-2.24l.89.83C9.78,47,9,47.75,8.26,48.48a43.65,43.65,0,0,0-3.37,3.57A15,15,0,0,0,1.25,62.3c.22,3.33,4.18,7.6,8.49,7.84,3.16.19,8.88-1.73,11.58-16.54a9.06,9.06,0,0,1,4.88-6.72L26.7,48a7.83,7.83,0,0,0-4.18,5.82C19.78,68.9,13.77,71.37,10.13,71.38Z"/><path class="cls-1" d="M21.2,49l2.07-3.48a39.1,39.1,0,0,0,8.13,1.47c.7,0,.66,1.28-.23,1.32l-1.47.16c.53.33-.05,1.58-1,1.17.47.6-.31,1.35-1.27.81.71.35.19,1.32-1.22.79C23.94,50.9,22.14,50.24,21.2,49Z"/><path class="cls-5" d="M21.54,49.59c-5.77-.45-15.68-4.33-15-8.69l2.6-12.71c.55-2.66,1.68-4.81,4.13-6l3.91-1.69-3,19.11,9.43,5.85Z"/><polygon class="cls-1" points="23.66 45.47 18.83 42.19 15.71 49.1 22.17 49.88 23.66 45.47"/><path class="cls-1" d="M45.26,40c-.41,1.24,2,4.49,3.31,4,.68-.28,4-4.9,4.68-5.19,2.75-1.14,3.15-2.86,3.29-3.23s.24-.43.15-1a2.33,2.33,0,0,0-.51-1.32.8.8,0,0,0-1.21.24.87.87,0,0,0-1.47.34.93.93,0,0,0-1.45.66.89.89,0,0,0-1.16.23,2,2,0,0,0-.32,1.21c0,.79-.19.72-.22,1.51a.91.91,0,0,1-.12.49.71.71,0,0,1-.37.29C48.93,38.47,46.25,39.57,45.26,40Z"/><path class="cls-10" d="M32,117.43c0-3.06.46-4.42.84-4.93l-.06-1.76,0-.8c-1-.36-1.69-.92-1.71-1.69-.07-1.64-.83-9.27-.87-17.06,0-2.86.07-5.75.32-8.37h0a54.9,54.9,0,0,1-1.63-6.09c-.06-.28-.11-.55-.17-.83,0-.11,0-.21-.06-.32l-.18-1s0,0,0,0l-.12-.69c-.06-.39-.12-.78-.18-1.19,0,0,0,0,0-.06s0-.08,0-.12h0c-.05-.31-.1-.64-.15-1l-.15-1,0-.23,0-.24c0-.2-.06-.4-.09-.6a2.7,2.7,0,0,0,0-.28c0-.19-.05-.37-.07-.56-.33,0-.67,0-1,0-.07.58-.15,1.15-.22,1.7,0,.22-.07.45-.11.68s-.07.54-.11.81c-.17,1.12-.34,2.17-.51,3.17-.16.83-.31,1.63-.48,2.41h0c-.07.35-.15.7-.23,1s-.22.87-.32,1.3c-.17.59-.33,1.19-.51,1.79-.14.45-.28.91-.44,1.38h0c.18,2,.28,4,.31,6.15v.14c0,.81,0,1.61,0,2.42v.89l0,1c0,.48,0,1,0,1.47l0,1.11c-.23,5.91-.72,10.94-.77,12.24,0,.77-.71,1.33-1.71,1.69l0,.8-.05,1.76c.38.51.86,1.87.83,4.93v1.18H19.38l.44-4.3.25-2.36.17-1.72.31-3c.05-.26.1-.52.14-.78,1.53-9.13,2.09-17.45-.78-23,.46-.63.89-1.29,1.29-2a27,27,0,0,0,3.65-13.11l-4.6-6A11.27,11.27,0,0,0,27,64.87h0a13.26,13.26,0,0,0,7.17-2l-4.44,5.43-.21.25c0,5.3,1.37,9.49,4,12.64a13,13,0,0,0,1.06,1.17,11.59,11.59,0,0,0-.78,1.19c-3.12,5.4-2.52,13.68-.68,22.92.09.41.18.82.26,1.24l.42,2.54.28,1.69.38,2.35.72,4.34H32Z"/></g></g></svg>