<svg xmlns="http://www.w3.org/2000/svg" viewBox="0 0 219.33 356.05"><defs><style>.cls-1{fill:#545a8f;}.cls-2{fill:#7785c7;}.cls-3{fill:#d0d9ec;}.cls-4{fill:#b0c0e0;}.cls-5{fill:#ffd0b8;}.cls-6,.cls-7,.cls-8{fill:#fff;}.cls-7{opacity:0.63;}.cls-8{opacity:0.5;}</style></defs><title>EmployeeAsset 1Employee</title><g id="Layer_2" data-name="Layer 2"><g id="OBJECTS"><path class="cls-1" d="M124.92,151.84c-1.4-.6-2.15-2.24-2.71-3.78-1.18-3.23-6.58-10.07-4.79-12.23,2.64-3.17,8.81-2.76,12-5.29,3.72,2.83,13.77,18.12,10.41,22.62C137.42,156.38,129.31,157.74,124.92,151.84Z"/><path class="cls-1" d="M135.42,140.3c.77.3,3.19.55,5.08,1.57,2.07,1.13,4.28,1.15,3.69-1.1s-6.77-5.41-9.83-4.32"/><path d="M120.93,153.33c3.67-1.6,7.31-3.25,11-4.9,2.77-1.25,6.75-2.26,8.12-5.15.24-.51.09-1.34-.59-1.45-3.17-.48-5.92,1.9-8.52,3.51-3.59,2.22-7.18,4.43-10.73,6.69a.75.75,0,0,0,.76,1.3Z"/><path class="cls-2" d="M134.3,145.94c-1.27-.73-1.82-.09-2,1.18-.65-1.33-1.5-2.17-2.61-1.94a2.62,2.62,0,0,0-1.83,2.33,2,2,0,0,0-.87-.82c-1.82-.6-2.64.3-2.83,1.83-3.65-.79-.65,4.72,1.14,7.4.8,1.2,6.25.62,9.79-.19a9.71,9.71,0,0,0,3.23-1.25C139.77,153.07,136.72,147.35,134.3,145.94Z"/><path class="cls-3" d="M133.82,136.9c-2,3.93-8.63,6.65-13.94,6.4-7.41-8.24-14.46-17.69-13.89-20.23.77-3.45,7.62-11,11.41-12.08C117.4,111,135.22,134.15,133.82,136.9Z"/><path class="cls-2" d="M55.32,77.29c-4.88-1.88-24.54-5.88-31.12-1.79-4.32,14.5-8.38,75.35-6.44,83.41.59,2.47,35.63,8.37,35.93,6.64A288.44,288.44,0,0,0,55.32,77.29Z"/><path d="M32.71,74.05c.81-8.69,17-5.88,21-3.84,2.38,1.19,5.62,4.72,3.54,7.71C55.42,80.6,32.19,79.61,32.71,74.05Z"/><path class="cls-2" d="M100.1,281c9-1.75,21.34-1.36,30.61-.3,8.52,1,5.86,6.49,5.54,15.29-.25,7.13.13,14.31.1,21.46s-.09,9.07,6.92,11.3,28,6.14,16.68,17c-13.77,13.18-51.88,7.7-53.48,3.31C102.66,338.51,103.27,303.7,100.1,281Z"/><path class="cls-4" d="M116.08,139.35c21,24.36,19.21,101.4,19.22,115.89,0,10.81-.22,22.31,2.63,32.8,1.68,6.16,7.33,15.5,1.95,20.33-7.55,6.78-35.12,9.49-39.78,1.55-4.07-7-3.25-60.62-5.73-74.37-3.71-20.54-9.89-40-9.9-60.92C84.46,159.24,109.49,137.07,116.08,139.35Z"/><path class="cls-2" d="M132.51,271.2c1.62,5.43,2.92,11.11,5,16.38a.52.52,0,0,0,1-.28c-1.31-5.5-3.49-10.92-5.26-16.29-.15-.46-.87-.27-.73.19Z"/><path class="cls-2" d="M105.62,277.14c-2.85,7.08-5.51,14.88-6,22.55a.47.47,0,0,0,.92.13c1.71-7.67,3-15.06,5.87-22.45.19-.51-.62-.72-.82-.23Z"/><path class="cls-2" d="M31.16,268.91c8.51,3.34,18.73,10.3,26,16.17,6.67,5.4,1.46,8.63-3.53,15.88-4,5.89-7.57,12.15-11.43,18.16s-4.94,7.61-.23,13.25,20.34,20.22,4.95,23.29C28.21,359.39-.4,335.45,0,329.75.39,324.37,21.62,289.81,31.16,268.91Z"/><path class="cls-4" d="M49.13,127.57c-4.45,6.41-5.35,18.26-6,25.59a325.46,325.46,0,0,0-.11,50.54c.48,6.53,4.3,16.62,2.91,23-1.08,5-6.42,10.38-8.65,14.94-7.64,15.61-11.55,30-16,45.13,0,0-6.41,8.85-7.07,14.58C13.53,307.28,41.8,315,45,314.59c15.29-2.07,7.37-10.49,14.84-21.7,11.61-17.42,27.89-39.17,32.76-49.53C98,232,107.33,220.71,109.88,208.52c3.16-15.06,2.14-32.74,0-47.84-.89-6.41-.19-21.81-3.57-27.11-4.49-7-22.06-9.87-29.14-11C69,121.3,60.33,121.34,49.13,127.57Z"/><path class="cls-2" d="M21.69,286.67c4.72-3.27,9.88-6.27,14.16-10.12.44-.4-.13-1.1-.62-.81-4.94,2.88-9.36,6.88-13.87,10.36-.33.25,0,.81.33.57Z"/><path class="cls-2" d="M53.92,286.68c-.71,3.85-.49,9,2.2,12.13a.61.61,0,0,0,1-.59A48.44,48.44,0,0,1,55,293a16.71,16.71,0,0,1-.34-6.22c.05-.42-.66-.52-.74-.1Z"/><path class="cls-2" d="M55.38,206.31c-2.63,3.72-4.57,8.08-6.64,12.14-1.83,3.58-3.92,7.18-5.13,11-.17.54.57.78.86.36,2.6-3.72,4.4-8.2,6.32-12.32,1.69-3.64,3.66-7.25,4.85-11.09,0-.16-.17-.23-.26-.11Z"/><path class="cls-5" d="M111.31,31.62c0,11-7.16,26.26-16,26.26s-16-8.91-16-19.9S85.11,14.48,94,14.48,111.31,20.63,111.31,31.62Z"/><path d="M106.23,32.85c0,1.2-.53,2.18-1.19,2.18s-1.19-1-1.19-2.18.53-2.17,1.19-2.17S106.23,31.65,106.23,32.85Z"/><path d="M102.41,29.71a4.47,4.47,0,0,1,4.06-1.07.8.8,0,0,0,.89-.36.83.83,0,0,0,.11-.4.81.81,0,0,0-.79-.8,5.74,5.74,0,0,0-4.93,2,.47.47,0,0,0,.66.66Z"/><path class="cls-2" d="M88.19,39.55a168,168,0,0,1,22.85-3c2.3,3.67,4.78,9.8,4.08,12.7-1.12,4.68-10.67,9.9-14.71,11.57C87.85,66,85.79,52.41,88.19,39.55Z"/><path class="cls-6" d="M96.2,40.1c-1.13-2.53-1.3-14.84-1.83-17.64-.18-3.86,14.41-4,16.73-3.3l.15.08c-.27-.77-.58-1.27-.94-1.37-2.61-.76-19-.64-18.82,3.7.6,3.16.79,17,2.06,19.85,4,0,7.92.92,11.18-2.07l.24-.22C102.34,40.71,99.33,40.08,96.2,40.1Z"/><path class="cls-6" d="M107,37.54c2.11-1.38,3.17-.55,5.78,2.07,0-.47,0-1,.05-1.59C110.41,35.68,109.53,35.34,107,37.54Z"/><path class="cls-7" d="M106.14,38.26c.29-.27.56-.5.82-.72a17.11,17.11,0,0,0-2,1.59A7.09,7.09,0,0,0,106.14,38.26Z"/><path class="cls-8" d="M111.25,19.24l-.15-.08c-2.32-.67-16.91-.56-16.73,3.3.53,2.8.7,15.11,1.83,17.64,3.13,0,6.14.61,8.77-1a17.11,17.11,0,0,1,2-1.59c2.57-2.2,3.45-1.86,5.83.48C112.91,32.54,112.52,22.84,111.25,19.24Z"/><path class="cls-4" d="M111.1,19.16C111.51.22,83.28-3.53,72.19,2.91,58.07,11.09,59.17,38.58,61,52.26c1.26,9.59-7.51,18.18-11.19,27.09-4.32,10.46-7.66,53.62-6.26,63.56,1.31,9.28,3.73,10.91,13,11.92,20.74,2.28,41.85,1.58,62.61.55,1.09-28.43,2.43-57.36-2-74.35-3.4-13-5.06-15.7-10.36-19.09-.66-.42-5.65-.66-6.29-1.13-3.92-2.93-5.26-11.34-6.33-14.45-1.83-5.3-1.85-18.52,1.24-23.47C97.12,20,104.9,21.67,111.1,19.16Z"/><path class="cls-4" d="M100.32,64.36a94.32,94.32,0,0,1,7,77.14c6.47,5.49,8.39,14.64,8.8,23.13.89,18.11-4.24,52-21.21,75.16"/><path class="cls-2" d="M100.12,64.48a96.29,96.29,0,0,1,6.52,76.83.7.7,0,0,0,.18.69c12.33,11.28,9.38,33.43,6.86,48.28-3,17.46-8.83,34.76-19.2,49.25-.39.54.5,1.05.89.52,13.56-18.83,20.07-42.79,21.32-65.77.54-9.95.45-21.65-5.79-30-2.41-3.22-2.22-4.28-1.13-8.15a90.6,90.6,0,0,0,2.31-10.55,90,90,0,0,0,1-19.26,95.5,95.5,0,0,0-12.55-42.09.24.24,0,0,0-.41.24Z"/><path class="cls-4" d="M77.47,29.52a4.77,4.77,0,0,0-4,8.55"/><path class="cls-2" d="M77.54,29.24A5.27,5.27,0,0,0,71.49,32a5.11,5.11,0,0,0,1.85,6.33c.23.13.49-.19.29-.37-1.53-1.39-2.48-3.27-1.78-5.36a4.66,4.66,0,0,1,5.54-2.76c.35.08.5-.46.15-.55Z"/><path class="cls-4" d="M70.55,51a23.83,23.83,0,0,0,18,8.36"/><path class="cls-2" d="M70.41,51.11c4.47,5.31,11.12,9.07,18.19,8.65a.42.42,0,0,0,0-.84c-7-.73-13-2.84-17.92-8.08-.17-.17-.42.09-.27.27Z"/><path d="M50.23,76.45c3.22-8.26,18.5-12.18,26-8.21,11.87,6.26,10.37,25.46,7.62,36-3.19,12.16-10.24,21.55-19,30.37C60.55,138.93,56,143,51.44,147.14c-3.89,3.51-8.53,6.91-11.48,11.28a1.56,1.56,0,0,0,2.12,2.11c6-4,11.24-9.92,16.54-14.8a171.7,171.7,0,0,0,16-16.34C84.11,118,90.21,103.3,89.3,88.23c-.59-9.7-4.74-22.67-16.09-23.79-8.22-.81-21.11,3-23.88,11.76-.19.59.69.8.9.25Z"/><path d="M103.43,61.68c6.49,5,8.5,13.87,10.13,21.47a71.22,71.22,0,0,1,1.59,13.57c.08,4-.84,8.22.11,12.11a1.33,1.33,0,0,0,2.4.31c2-4.2,1.35-9.62,1-14.14a70.74,70.74,0,0,0-2.59-14.59C113.9,72.92,111,65,103.76,61.12a.33.33,0,0,0-.33.56Z"/><polygon points="151.41 91.42 212.81 37.08 214.3 38.48 152.27 93.98 151.41 91.42"/><polygon points="165.65 77.66 168.12 80.69 154.64 92.98 153.27 88.58 165.65 77.66"/><polygon points="212.81 37.08 219.33 33.88 218.7 36.9 214.3 38.48 212.81 37.08"/><path d="M151.88,93c-3.06,9.86-9.17,19.29-13.89,28.4-5.69,11-11.1,22.6-18.41,32.6C107.75,170.15,88,182.09,67.48,176.8c-19.38-5-26.67-24.12-28.13-42.31-1.55-19.32,1.58-39.19,6.23-57.9a1,1,0,0,0-1.9-.52c-6.26,17.44-8.36,38-7.32,56.41.91,16.26,5.9,35.08,21.15,43.6,16.62,9.29,37.54,3.82,51.49-7.74,12-10,18.9-23.94,25.92-37.55,4-7.73,7.88-15.52,11.58-23.4,2.16-4.59,4.73-9.32,6.1-14.22a.37.37,0,0,0-.72-.2Z"/><path class="cls-2" d="M123.23,101.33c-6.64,5,34.07-19.31,36.56-19.32,3.14,0-4.93,5.75-6.52,7.17,2.61-.57,2.48-1,4.95.95,1.63,1.27,1.58,2.59,1.57,4.71,0,.77-3.11,6.12-4.08,7.15-1.12,1.18-6.76-.19-8.22.37-2.22.86-8.27,8-13.59,14.62C133.15,114.54,121.19,106.38,123.23,101.33Z"/><path class="cls-4" d="M49.75,99.5c-3.86-8,3.67-22.6,12.45-27.06C77,64.9,83.42,100.73,87.31,110.61c2.76-3.53,18.31.7,21.67-2a98.86,98.86,0,0,1,10.85-6.43c1.79-.8,1.37-3.75,3.68-3.83,4-.13,6.51,5.27,8.38,8.1,3.12,4.74,8.38,11.29,1.42,15.37-1.23.72-3.39-.57-4.55.1-1.61.94-2.16,2.49-3.64,3.78a28,28,0,0,1-9.37,5.87c-10.85,4.26-40.18,17.79-44.41,14C60.42,139.44,50.58,104.45,49.75,99.5Z"/><path class="cls-2" d="M120.68,101.29a28.25,28.25,0,0,0-.46,10.64c0,.26.47.2.46-.06a49.8,49.8,0,0,1,.27-10.5c0-.18-.23-.26-.27-.08Z"/><path class="cls-2" d="M118.09,117.08c2.88,2.34,6.39,4.55,10.07,5.31a.37.37,0,0,0,.2-.72,38,38,0,0,1-10.1-4.81c-.13-.1-.29.12-.17.22Z"/><path class="cls-2" d="M51,99.53C54,111.4,55.44,124.9,62.36,135.28c3,4.51,7,11.36,13.14,10.47,7.89-1.15,15.73-4.17,23.22-6.78,4.37-1.53,8.72-3.13,13-4.86,2.74-1.11,6.35-2.08,8.55-4.11.41-.37,0-.95-.5-.86-2.89.55-5.76,2.36-8.46,3.47-3.73,1.52-7.5,2.94-11.29,4.31a209,209,0,0,1-21.39,6.77c-1.89.45-4.41,1.38-6.28.67-3.9-1.49-7.44-7.41-9.56-10.72-6.34-9.95-8.27-23-11.51-34.18a.14.14,0,0,0-.27.07Z"/><path class="cls-2" d="M111.87,106.4c-7.94,2.72-16.85-.42-24.47,3.48-6.06,3.11-10.66,9.83-13.32,15.92a.42.42,0,0,0,.73.43c4.45-6.4,7.68-13.79,15.77-16.34,7-2.21,14.51-.2,21.49-2.77.44-.16.26-.88-.2-.72Z"/><path class="cls-2" d="M87.48,109.79c-2.19-4-5.63-8.18-10.06-9.75-.48-.17-.69.51-.33.77,3.87,2.76,7.38,5.12,10,9.22a.23.23,0,0,0,.4-.24Z"/><path class="cls-2" d="M74.78,78.85c5.34,9,7.68,18.33,10.3,28.28a.28.28,0,0,0,.55-.07C85.29,97,80.45,87,74.86,78.81c0,0-.11,0-.08,0Z"/></g></g></svg>