<svg xmlns="http://www.w3.org/2000/svg" viewBox="0 0 62.71 70.85"><defs><style>.cls-1{fill:#7d6659;}.cls-2{fill:#e6e2e0;}.cls-3{fill:#252722;}.cls-4{fill:#5f625e;}.cls-5{fill:#ffe7db;}.cls-6{fill:#beb5af;}.cls-7{fill:#31332d;}.cls-8{fill:#7785c7;}.cls-9{fill:#b0c0e0;}.cls-10{fill:#108944;}.cls-11{fill:#664a3b;}.cls-12{fill:#ccc4c0;}</style></defs><title>GardenAsset 1Employee</title><g id="Layer_2" data-name="Layer 2"><g id="Layer_1-2" data-name="Layer 1"><ellipse class="cls-1" cx="31.36" cy="61.3" rx="31.36" ry="9.55"/><path class="cls-2" d="M26.06.56c1.55-.49,3.35-.95,4.71-.05s1.82,3.27,3.45,4A28.82,28.82,0,0,0,20.27,7c1.32-.74,1.18-2.69,1.93-4S24.58,1,26.06.56Z"/><path class="cls-3" d="M38,54c.84,1.17,1.53,2.78.75,4s-3.22,1.95-5.44,1.51c-7.11-1.38-12.7-3.75-19.6-6,.17-1.43.95-3.36,1.12-4.79,5.86,2.2,11.21,4.92,17.45,5.37-2.92-1.32-5.93-2.7-8.12-5s-3.37-6-2-8.85a40.73,40.73,0,0,1,5.34.4C29.05,45.66,34.85,49.63,38,54Z"/><path class="cls-3" d="M11.4,56.29a1.8,1.8,0,0,0,1.52-.84,5.56,5.56,0,0,0,.66-1.68c.37-1.43.75-2.86,1.13-4.29a1.11,1.11,0,0,0-.07-1,1.07,1.07,0,0,0-.51-.28l-3-1A17.18,17.18,0,0,0,9.56,51a5.82,5.82,0,0,0,.3,4A2,2,0,0,0,11.4,56.29Z"/><path class="cls-4" d="M24.25,40.42l-7.7-1.16a4.31,4.31,0,0,0-2,0,4.18,4.18,0,0,0-2.46,2.49,6.86,6.86,0,0,0-.24,4.4,5.89,5.89,0,0,0,2.71,2.76,79,79,0,0,0,13,6.54A88.21,88.21,0,0,1,12.77,50l-1.86,5.89s12.17,2.92,18.54,3.59a6.32,6.32,0,0,0,4.78-1.81,3.12,3.12,0,0,0,.2-3.23,9.15,9.15,0,0,0-2.11-2.65L26,45.54a8.48,8.48,0,0,1-1.85-2.3A2.79,2.79,0,0,1,24.25,40.42Z"/><path class="cls-3" d="M9.62,57.61a1.81,1.81,0,0,0,1.52-.85,5.56,5.56,0,0,0,.66-1.68c.37-1.43.75-2.85,1.13-4.28a1.13,1.13,0,0,0-.07-1,1.05,1.05,0,0,0-.51-.27l-2.95-1a17.67,17.67,0,0,0-1.62,3.8,5.85,5.85,0,0,0,.3,4A2.1,2.1,0,0,0,9.62,57.61Z"/><path class="cls-5" d="M42.36,40.24a8.92,8.92,0,0,1,.91-.38s2.79,1.3,1.92,3a2.52,2.52,0,0,1-2.27,1A5.2,5.2,0,0,1,39.72,42C40.55,41.56,41.54,40.72,42.36,40.24Z"/><path class="cls-6" d="M38.83,8.42c-.25-1.93-2.17-3.18-4-3.82a16.69,16.69,0,0,0-10.66-.08,9.12,9.12,0,0,0-5,3.44,4.91,4.91,0,0,0,.11,5.73c1.33,1.53,3.6,1.77,5.64,1.71a33.33,33.33,0,0,0,7.5-1.06,10.24,10.24,0,0,0,5.19-2.7A4.17,4.17,0,0,0,38.83,8.42Z"/><path class="cls-5" d="M29.09,18.48a5.93,5.93,0,0,0,4-3.36A18,18,0,0,0,34.44,9.9a4.82,4.82,0,0,0-.31-3.36,3.9,3.9,0,0,0-2.67-1.47,10.62,10.62,0,0,0-9.2,2.83,13.54,13.54,0,0,0,.93,7.17C24.28,17.25,26.69,18.93,29.09,18.48Z"/><path class="cls-5" d="M22.46,13.21a4.28,4.28,0,0,1,.07-1.63,3.69,3.69,0,0,0,0-1.62,1.33,1.33,0,0,0-1.16-1,1.25,1.25,0,0,0-1.11,1.29,2.52,2.52,0,0,0,.8,1.66C21.51,12.37,22,12.74,22.46,13.21Z"/><path class="cls-7" d="M23,6.32C26.1,3.65,28.6,4.91,28.6,4.91c-1.17,2.28-4.48,5.29-6.44,6.93a10.32,10.32,0,0,1-.38-2.53A3.75,3.75,0,0,1,23,6.32Z"/><path class="cls-7" d="M31,10.41c3.23.68,4.68-.12,4.68-.12A3.72,3.72,0,0,0,34.39,6,11.6,11.6,0,0,0,29.5,4.48a8.72,8.72,0,0,0-4.58.59A9.55,9.55,0,0,0,31,10.41Z"/><path class="cls-5" d="M29.52,18.52a4.21,4.21,0,0,1,0-1.66,3.74,3.74,0,0,1-.89.12,3.55,3.55,0,0,1-1.92-.57A7.68,7.68,0,0,1,26.27,18a4.18,4.18,0,0,1-3.06,2.61,25.75,25.75,0,0,0,.68,5.32A6.71,6.71,0,0,0,25,28.48a2.78,2.78,0,0,0,2.39,1.21,3.25,3.25,0,0,0,2.48-2.39c.38-1.15.42-2.39.77-3.56A3.4,3.4,0,0,1,33,21.21,3.19,3.19,0,0,1,29.52,18.52Z"/><path class="cls-8" d="M32.26,21.2a2,2,0,0,1,1.92.77,4.59,4.59,0,0,1,.87,2c.57,2.43.44,5,1,7.42a12.77,12.77,0,0,0,7.25,8.52s-2.26,1.72-3.21,2.26c-3.48-1.26-6.11-4.44-7.94-7.65a15.82,15.82,0,0,1-1.75-10.72C30.65,22.68,31.16,21.43,32.26,21.2Z"/><path class="cls-9" d="M33.07,21.24c-1.72,6.48-3.37,13.55-5.39,20A26.09,26.09,0,0,1,14,39.57c1.35-5.65,2.56-10.68,3.92-16.32a9.7,9.7,0,0,1,1.41-2.8L25,19.59c1.33,2.39,4.81,1.32,5.18.43A12,12,0,0,0,33.07,21.24Z"/><path class="cls-10" d="M41.4,33.54A2.5,2.5,0,0,1,42.89,32c.54-.21,1.13-.22,1.69-.39a3.29,3.29,0,0,0,2.14-2,9.18,9.18,0,0,1,.18,2.86,3.21,3.21,0,0,1-1.43,2.38,4.76,4.76,0,0,1-2.37.44,1.87,1.87,0,0,1-1.56-.47A1.39,1.39,0,0,1,41.4,33.54Z"/><path class="cls-10" d="M40.79,31.3a10.87,10.87,0,0,0-2.41-2.18,7.69,7.69,0,0,0-.19,3.16,3.52,3.52,0,0,0,1.73,2.54,1.24,1.24,0,0,0,2-1.33A4.47,4.47,0,0,0,40.79,31.3Z"/><path class="cls-10" d="M42.12,45a1.26,1.26,0,0,1-.52-.55.82.82,0,0,1,0-.41,9.07,9.07,0,0,0,.14-.91c.11-1.51.42-5.49.6-7.65a1.38,1.38,0,0,0-.13-.92c-.17-.27-.62-.36-.79-.1q-.34,4.45-.68,8.89a2.92,2.92,0,0,0-.86.44A1.62,1.62,0,0,0,39.27,45a2.37,2.37,0,0,0,.35,1.22,4.2,4.2,0,0,1,.49,1.15,1.17,1.17,0,0,1-.34,1.15c.39.08.73-.38.8-.86a4.68,4.68,0,0,0-.51-1.74c-.16-.45-.39-.84,0-1.43a.8.8,0,0,1,.27-.18h0a3,3,0,0,0,.27,1.46,6.07,6.07,0,0,1,.47,1.4,1.49,1.49,0,0,1-.38,1.35c.51,0,1.29-.8.35-2.94a1.7,1.7,0,0,1-.12-1.09.35.35,0,0,1,.13-.14.81.81,0,0,0,.07.22,1.71,1.71,0,0,0,.57.62,3.55,3.55,0,0,1,.62.55,2.23,2.23,0,0,1,.13,2.06A1.77,1.77,0,0,0,42.12,45Z"/><path class="cls-11" d="M60.3,61.09A13.08,13.08,0,0,0,55.36,53a9.09,9.09,0,0,0-10.59.37,18.77,18.77,0,0,0-5.91,7.69Z"/><path class="cls-5" d="M41.81,42.61A2.58,2.58,0,0,0,40.68,40a4.74,4.74,0,0,0-2.21-.94c-.68,1.3-1.37,2.6-2.06,3.9a7,7,0,0,0,2.91,1.12A2.38,2.38,0,0,0,41.81,42.61Z"/><path class="cls-8" d="M28.92,34.53a7.67,7.67,0,0,1-4-4.88c-.5-1.87-.86-3.57-1.48-6.34A3.8,3.8,0,0,0,22.08,21a2.76,2.76,0,0,0-2.77-.54,2.79,2.79,0,0,0-1.45,2.46,55.41,55.41,0,0,0,1.7,10.88A7.43,7.43,0,0,0,21,36.57a7.28,7.28,0,0,0,2.5,1.56,134.41,134.41,0,0,0,13.3,5.09A15.77,15.77,0,0,0,39.08,39C37.4,38.59,32.26,36.16,28.92,34.53Z"/><path class="cls-3" d="M31.05,60.74l-1.69,5.79s7,1.91,8.73-1.22S31.05,60.74,31.05,60.74Z"/><path class="cls-12" d="M33.33,64.14c.11-.27-1.21-.72-1.61-.8L11.92,59.2a1.67,1.67,0,0,0-1.77.65v0c-.3.62.3,1.32,1.26,1.46l20,3c.38.06,1.81.06,1.9-.19Z"/></g></g></svg>