<svg xmlns="http://www.w3.org/2000/svg" viewBox="0 0 72.12 54.09"><defs><style>.cls-1{fill:#e5a029;}.cls-2{fill:#f1aa3f;}.cls-3{fill:#f6b455;}.cls-4{fill:#ffc56e;}.cls-5{fill:#664a3b;}.cls-6{fill:#108944;}.cls-7{fill:#3d9962;}.cls-8{fill:#e9a82a;}.cls-9{fill:#faecd0;}</style></defs><title>HandAsset 1Employee</title><g id="Layer_2" data-name="Layer 2"><g id="Layer_1-2" data-name="Layer 1"><path class="cls-1" d="M61.29,28.5c-1.17-.07-2.55.73-3.91,1.59-4.31,2.72-7.61,8.69-13.14,8.64-2.51,0-6.54-1.79-10.65-3.32l-.43,4.32a52.2,52.2,0,0,1,5.94,1.72,76.65,76.65,0,0,0,10.28,2.84c2.77-1.73,6.75-5.47,12.95-12.37C63.25,30.9,62.66,28.58,61.29,28.5Z"/><path class="cls-2" d="M43,40.09a76.24,76.24,0,0,0,10.28,2.84c2.77-1.74,6.74-5.48,13-12.37.92-1,.32-3.34-1.05-3.42-1.16-.07-2.54.72-3.9,1.59C57,31.45,53.7,37.41,48.17,37.36s-18.36-8.48-23.28-4.45l-.05,0-.36,3.53C30.77,37.06,37,37.94,43,40.09Z"/><path class="cls-3" d="M47.81,39.07A75.32,75.32,0,0,0,58.1,41.91c2.76-1.73,7-5.2,13.17-12.09a1.66,1.66,0,0,0-1.11-2.77,9.37,9.37,0,0,0-4.07.66C62.32,29.25,58.48,36.4,53,36.35S34.6,27.87,29.67,31.9l-.05-.06-.35,3.54C35.56,36,41.83,36.93,47.81,39.07Z"/><path class="cls-4" d="M0,43.53A12.15,12.15,0,0,0,11,54.09s9-9.63,11-10.46c5.46-2.26,14.06.64,16.4.83,3.81.3,12.32.47,16.72,1.22a1.89,1.89,0,0,0,1.52-.39,82.34,82.34,0,0,1,8-5.66c2.29-1.38,4.23-4.3,7-7.43a1.66,1.66,0,0,0-1.11-2.77,9.25,9.25,0,0,0-4.07.67c-3.77,1.53-7.61,8.69-13.14,8.63S35,30.25,30.09,34.28c0,0-5.9-7.33-11-4.22S7.88,39.19,0,43.53Z"/><path class="cls-5" d="M33.53,33.24a44.29,44.29,0,0,1,5-4.63,10.61,10.61,0,0,1,5.27-2.33A11.09,11.09,0,0,1,50,27.64a35.51,35.51,0,0,1,7.45,5.61C50.15,38.56,33.53,33.24,33.53,33.24Z"/><path class="cls-6" d="M59.47,8.23a6,6,0,0,1-2.35,3.06c-1.85,1.15-4.21.84-6.37.57s-4.58-.42-6.29.94c.42-2.76.91-5.67,2.72-7.79S51.7,2,54.37,1.5s5.43-.64,8-1.5a7.13,7.13,0,0,0-1.94,3.91A33.32,33.32,0,0,1,59.47,8.23Z"/><path class="cls-7" d="M51,8.89a33.81,33.81,0,0,0-5.83,3.23C48.22,8,54.7,7.65,57.92,3.61A6.37,6.37,0,0,1,55.07,7,30.92,30.92,0,0,1,51,8.89Z"/><path class="cls-7" d="M50.15,5.78l-3.62,5.1A10.12,10.12,0,0,0,50.15,5.78Z"/><path class="cls-7" d="M53.59,4a13.9,13.9,0,0,1-2.74,4.29c.46-.33.56,0,1-.34A5.93,5.93,0,0,0,53.59,4Z"/><path class="cls-7" d="M51.82,8a.29.29,0,0,0-.22.1c-.08.16.15.29.33.31a11,11,0,0,0,2.81.11,3.67,3.67,0,0,0,2.43-1.27Z"/><path class="cls-7" d="M55.45,9.81a25.13,25.13,0,0,1-6.82-.33c0,.46.47.75.91.88C51.47,10.93,53.52,10.37,55.45,9.81Z"/><path class="cls-6" d="M43.94,5.42A10.11,10.11,0,0,0,37,.6a20.71,20.71,0,0,0-8.65.33,4.92,4.92,0,0,1,2.87,3,23.7,23.7,0,0,1,1,4.17A8.25,8.25,0,0,0,33.91,12a6.69,6.69,0,0,0,5.53,1.92,19.84,19.84,0,0,0,5.81-1.68A16,16,0,0,0,43.94,5.42Z"/><path class="cls-7" d="M38.27,7C37,5.43,36,3.49,34.12,2.84c1.79,1.6,2.9,3.81,4.36,5.71s3.58,3.62,6,3.48A25.69,25.69,0,0,1,38.27,7Z"/><path class="cls-7" d="M40.33,4.7a15,15,0,0,0-.11,3.14,4.94,4.94,0,0,0,1.2,2.86,15.57,15.57,0,0,0-.32-2.14C40.84,7.27,40.58,6,40.33,4.7Z"/><path class="cls-7" d="M37.51,7.24c.13.27.6.12.69-.17s-.57-4-1.09-4.32C37.25,4.25,37.38,5.75,37.51,7.24Z"/><path class="cls-7" d="M37.87,7.77a.51.51,0,0,0,.41-.2.35.35,0,0,0-.16-.45A.72.72,0,0,0,37.61,7,9.66,9.66,0,0,1,34,6.73,5.37,5.37,0,0,0,37.87,7.77Z"/><path class="cls-7" d="M35.41,9.49a7.36,7.36,0,0,0,5.49.74c-.06-.17-.11-.34-.17-.52Z"/><path class="cls-6" d="M46.51,27.91c1-.33,1.16-1.6,1.17-2.63a50.59,50.59,0,0,0-.23-7.59A17.12,17.12,0,0,0,45,10.55a2.82,2.82,0,0,0-.79,2.14,11.35,11.35,0,0,0,.42,2.3,21.82,21.82,0,0,1-.53,11.88C44.76,27.51,45.63,28.21,46.51,27.91Z"/><path class="cls-8" d="M38.39,34,31.5,29.81c-12.33-4.26-11.22,1.15-13,2.25l8.3,4.71s6.14-2.74,22,.91C48.78,37.68,38.83,34,38.39,34Z"/><path class="cls-4" d="M53.83,32.71a.67.67,0,0,0-.52-.91C49.9,31.49,37,30.2,29.46,27.58,17.12,23.33,18,30.84,16.26,31.94l10.56,4.83s1.66-5.17,19.25-.08C46.07,36.69,52.68,37.26,53.83,32.71Z"/><path class="cls-9" d="M48.74,31.53s-2.11.91-1,2.17c.58.65,1.59,1.06,3.43.68a2.65,2.65,0,0,0,2.22-1.84A.51.51,0,0,0,53,32Z"/><path class="cls-9" d="M71,30.6c-1.24-.18-3.41.62-3.35,3.6,0,.69,1,1,1.7.44s1.39-1.36,2.23-2.22A1,1,0,0,0,71,30.6Z"/></g></g></svg>