<svg xmlns="http://www.w3.org/2000/svg" viewBox="0 0 68.46 77.96"><defs><style>.cls-1{fill:#3c3c3b;}.cls-2{fill:#575756;}.cls-3{fill:#7785c7;}.cls-4{fill:#5c6999;}.cls-5{fill:#5e6cbc;}.cls-6{fill:#434fbf;}.cls-7{fill:#b0c0e0;}.cls-8{fill:#4757b2;}.cls-10,.cls-8{opacity:0.5;}.cls-9{fill:#1d1d1b;opacity:0.1;}.cls-10{fill:#fed0a9;}</style></defs><title>MAskAsset 1Mask</title><g id="Layer_2" data-name="Layer 2"><g id="Layer_1-2" data-name="Layer 1"><path class="cls-1" d="M.75,10.2v0Z"/><path class="cls-1" d="M.73,10.46c0,1,0,2,0,3.08,0-1.08,0-2.16,0-3.24C.75,10.35.73,10.41.73,10.46Z"/><path class="cls-1" d="M67.59,10.76v0Z"/><path class="cls-1" d="M7.27,18.21c-2.78-1.77-5-3.73-6-6.11a7.53,7.53,0,0,1-.52-1.87v.07c0,1.08,0,2.16,0,3.24,0,.11,0,.23,0,.34,0,.44.07.87.13,1.31.36,2.68,3.1,5,6.37,7Z"/><path class="cls-1" d="M67.63,11.25c0-.13,0-.24,0-.37V10.8A5.91,5.91,0,0,1,67,12.75c-1.08,2.16-3.45,4-6.34,5.52v3.82A17.45,17.45,0,0,0,67,16.78C68.12,15.15,67.66,13,67.63,11.25Z"/><path class="cls-2" d="M36,.09C23.61-.4,1.39.86.75,10.23a7.53,7.53,0,0,0,.52,1.87C4.78,4.35,24.4,3.7,36,3.93c10.89.22,27.42,2,31,8.82a5.91,5.91,0,0,0,.61-1.95C66.77,2.31,47.49.55,36,.09Z"/><path class="cls-3" d="M49.46,46.9v7.16a17,17,0,0,1-2.75,9.34,15.59,15.59,0,0,1-2.54,3,14.28,14.28,0,0,1-9.7,3.85H34a14.28,14.28,0,0,1-9.7-3.85,16.12,16.12,0,0,1-2.38-2.76A17,17,0,0,1,19,54.06V46.9C28.65,34.11,38.94,33.5,49.46,46.9Z"/><path class="cls-4" d="M24.5,66.64,22,66.42l-1.34-.12h0l-.36,0a5.78,5.78,0,0,1-3.78-1.88,6,6,0,0,1-1-1.61l-2.25-5.35a5.68,5.68,0,0,1-.44-2.56v0A5.35,5.35,0,0,1,13,53.47a5.55,5.55,0,0,1,1-1.87l0,0L16.5,49.3,19,47l.09-.09c.77,5.91,1,12,3.34,16.62a14,14,0,0,0,1.86,2.88Z"/><path class="cls-4" d="M55.24,57.43,53,62.78a6.05,6.05,0,0,1-.75,1.28,5.74,5.74,0,0,1-4.05,2.21l-.36,0h0l-1.34.12L44,66.64c.07-.08.15-.16.21-.24a13.8,13.8,0,0,0,2-3.11c2.2-4.62,2.46-10.58,3.22-16.39l.09.09,2,1.9,2.65,2.46.23.21a5.72,5.72,0,0,1,1,1.91,4.67,4.67,0,0,1,.25,1.39s0,0,0,0A5.54,5.54,0,0,1,55.24,57.43Z"/><path class="cls-5" d="M43.87,59.07a9.64,9.64,0,1,1-9.64-9.64A9.65,9.65,0,0,1,43.87,59.07Z"/><path class="cls-6" d="M40.65,59.07a6.42,6.42,0,1,1-6.42-6.43A6.42,6.42,0,0,1,40.65,59.07Z"/><path class="cls-1" d="M8,38.2v0Z"/><path class="cls-1" d="M8,38.48c0,1.09,0,2.17,0,3.25V38.3A1.1,1.1,0,0,1,8,38.48Z"/><path class="cls-1" d="M60.39,38.79a.06.06,0,0,1,0,0v0Z"/><path class="cls-1" d="M17.88,50.24c-4.25-2.86-8.18-5.83-9.49-10a9.8,9.8,0,0,1-.41-2v3.5c0,.13,0,.25,0,.37,0,.46.05.92.1,1.38.45,4.57,5.68,8.07,9.78,10.83C17,53.75,18.76,50.84,17.88,50.24Z"/><path class="cls-1" d="M60.42,39.31l0-.39v-.09a8,8,0,0,1-.47,2.07c-1.39,3.74-5.46,6.52-9.6,8.63-.82.42.77,3.68,0,4.07,4.12-2.1,7.86-4.77,9.65-8.42C60.8,43.44,60.44,41.13,60.42,39.31Z"/><path class="cls-2" d="M35.59,27.49C25.9,27,8.48,28.3,8,38.23a9.8,9.8,0,0,0,.41,2c2.75-8.21,18.13-8.9,27.2-8.66,8.54.24,21.5,2.11,24.32,9.35a8,8,0,0,0,.47-2.07C59.74,29.84,44.63,28,35.59,27.49Z"/><path class="cls-6" d="M22,66.42c-.38-.84-.81-1.71-1.27-2.56-.76-1.41-1.6-2.78-2.39-4A42.76,42.76,0,0,0,13,53.47c-2-2-4-3.2-5.17-2.41a1.67,1.67,0,0,0-.68,1.17,9.54,9.54,0,0,0,.93,4.44c.13.34.28.68.44,1A42.92,42.92,0,0,0,10.83,62c.08.13.15.27.24.4s.28.45.43.67a1.4,1.4,0,0,0,.1.16,1.88,1.88,0,0,0,.12.18l.21.33.22.33.3.44.21.3.48.67.08.1A40.89,40.89,0,0,0,17,70.06l.61.6.32.3a8.43,8.43,0,0,0,3.34,2.11h0a1.63,1.63,0,0,0,1.33-.18C23.88,72,23.28,69.36,22,66.42Zm-8.07-1.91c-.26-.36-.52-.73-.78-1.12-3.46-5.13-4.78-9-4.81-10.59,0-.4.07-.65.21-.75.44-.3,2.06.58,4.25,2.82l.69.72c.61.68,1.24,1.43,1.88,2.24l.33.43.66.9.24.33L17,60l.38.55c.8,1.19,1.53,2.36,2.15,3.49a.46.46,0,0,1,.07.14c.16.28.31.55.44.82s.15.27.22.41q.22.45.42.87c1.5,3.23,1.77,5.29,1.3,5.61-.15.09-.41.07-.78-.09C19.8,71.25,17.05,68.92,13.91,64.51Z"/><path class="cls-5" d="M21.77,72.73l-.51.34h0l-5.15,3.47h0l-1,.68-.34-.5-1-1.47-.24-.34h0l-3-4.39h0l-.45-.68h0L6.2,64,6,63.76H6l-.45-.68-3-4.39-.24-.34-1-1.47-.33-.5,1-.68h0l5.14-3.47.52-.34.61.91,7.84,11.62,5,7.4Z"/><ellipse class="cls-7" cx="8.08" cy="66.8" rx="3.12" ry="12.57" transform="matrix(0.83, -0.56, 0.56, 0.83, -35.99, 15.95)"/><path class="cls-8" d="M14,74.66a31.61,31.61,0,0,0-4.42-8.89c-.36-.53-.71-1-1-1.49A29.15,29.15,0,0,0,3,58.35a.53.53,0,0,0-.65,0,.56.56,0,0,0-.24.6,24.53,24.53,0,0,0,2,4.75,44.19,44.19,0,0,0,2.47,4.14,31.33,31.33,0,0,0,6.59,7.42.53.53,0,0,0,.65,0A.54.54,0,0,0,14,74.66Zm-.48.26a.14.14,0,0,1-.16,0A31.14,31.14,0,0,1,6.9,67.61a40.57,40.57,0,0,1-2.31-3.83h0a24.82,24.82,0,0,1-2.06-4.94.14.14,0,0,1,.08-.14.13.13,0,0,1,.16,0A28.12,28.12,0,0,1,8,64.23c.41.55.84,1.14,1.26,1.77a31,31,0,0,1,4.37,8.78.14.14,0,0,1-.08.14Z"/><path class="cls-6" d="M11.16,64.73,11,64.46c-2.49-3.63-6.4-8.18-8.93-8.76h0a1.68,1.68,0,0,0-1.34.19c-1.41,1-.54,4.08,1,7.36A45.15,45.15,0,0,0,5,68.88c3,4.39,8.18,10.37,10.44,8.84a1.66,1.66,0,0,0,.67-1.17h0C16.54,73.93,13.63,68.38,11.16,64.73Zm3.61,12c-.7.48-4.45-2.08-8.79-8.51a45.3,45.3,0,0,1-2.79-4.68C1.24,59.71.86,57.23,1.38,56.88s4.06,1.81,8.08,7.49c.24.33.48.67.71,1C14.51,71.81,15.49,76.25,14.77,76.73Z"/><path class="cls-5" d="M7.71,51.89c1.43-1,5.73,2.92,9.62,8.67s5.87,11.21,4.44,12.17S16,69.81,12.15,64.06,6.28,52.86,7.71,51.89Z"/><path class="cls-8" d="M10.7,70.14a18.6,18.6,0,0,0-2-3.74,21.26,21.26,0,0,0-1.75-2.29,12,12,0,0,0-1-1,.33.33,0,0,0-.39,0,.31.31,0,0,0-.11.38,5.12,5.12,0,0,0,.19.48,19.51,19.51,0,0,0,1.84,3.27,18.41,18.41,0,0,0,2.7,3.28.35.35,0,0,0,.4,0h0A.32.32,0,0,0,10.7,70.14Zm-.58-.3A20.51,20.51,0,0,1,7.83,67a21.89,21.89,0,0,1-1.7-3c0-.09-.07-.17-.11-.25l.26.27a19.89,19.89,0,0,1,2,2.61,20.8,20.8,0,0,1,1.82,3.21Z"/><path class="cls-6" d="M61.27,52.23a1.69,1.69,0,0,0-.67-1.17c-1.18-.79-3.15.44-5.18,2.41a42.69,42.69,0,0,0-5.27,6.43c-.75,1.1-1.53,2.38-2.26,3.69-.51.94-1,1.9-1.41,2.83-1.3,2.94-1.9,5.6-.62,6.47a1.66,1.66,0,0,0,1.34.18,9.65,9.65,0,0,0,3.91-2.65c.23-.22.46-.45.69-.7A41.06,41.06,0,0,0,55,66c.13-.16.24-.32.36-.49l.48-.67c.16-.22.31-.45.47-.68l0-.06c.23-.33.45-.67.66-1l.42-.67c.09-.13.16-.27.24-.4a42.92,42.92,0,0,0,2.27-4.28c.16-.36.31-.7.44-1A9.41,9.41,0,0,0,61.27,52.23Zm-6,11.16-.51.75c-3.25,4.64-6.11,7.08-7.5,7.68-.37.16-.64.18-.78.09-.47-.32-.2-2.38,1.3-5.61q.2-.42.42-.87c.27-.53.57-1.09.89-1.66.13-.23.27-.47.42-.71s.15-.27.24-.41c.42-.69.86-1.38,1.33-2.08l.38-.55.37-.53.24-.33.33-.46.33-.44c.11-.15.22-.29.34-.43.54-.7,1.09-1.36,1.63-2,.18-.21.36-.39.54-.58l.38-.41c2.21-2.24,3.82-3.12,4.26-2.82.14.1.21.36.21.76C60.11,54.4,58.79,58.27,55.32,63.39Z"/><path class="cls-5" d="M67.42,56.38l-.34.5-1,1.47-.23.34-3,4.39-.32.48-.13.2-4.12,6.09-.45.68-3,4.39-.24.34-1,1.47-.33.5-1-.68h0L47.2,73.07l-.51-.34.62-.91,5.22-7.74,7.61-11.27.62-.92.51.34,5.14,3.47h0Z"/><path class="cls-7" d="M67.41,56.38c-1.43-1-5.74,2.92-9.62,8.68s-5.87,11.2-4.44,12.17,5.74-2.92,9.62-8.68S68.84,57.35,67.41,56.38Z"/><path class="cls-8" d="M66.09,58.35a.53.53,0,0,0-.65,0,28.37,28.37,0,0,0-5.23,5.51c-.44.59-.89,1.22-1.36,1.91a31.61,31.61,0,0,0-4.42,8.89.56.56,0,0,0,.24.6.53.53,0,0,0,.65,0,31.33,31.33,0,0,0,6.59-7.42,42.69,42.69,0,0,0,2.71-4.61A24.6,24.6,0,0,0,66.33,59,.54.54,0,0,0,66.09,58.35Zm-2,5a41.45,41.45,0,0,1-2.54,4.29,31.32,31.32,0,0,1-6.5,7.32.13.13,0,0,1-.16,0,.12.12,0,0,1-.07-.14A30.88,30.88,0,0,1,59.2,66c.54-.8,1.07-1.54,1.59-2.2a27.32,27.32,0,0,1,4.91-5.12s.11,0,.16,0,.09.08.07.14A23.92,23.92,0,0,1,64.11,63.32Z"/><path class="cls-6" d="M67.75,55.89a1.68,1.68,0,0,0-1.33-.19h0c-2.43.56-6.16,4.8-8.65,8.35l-.46.68c-2.48,3.65-5.38,9.2-5,11.81h0A1.69,1.69,0,0,0,53,77.72c2.27,1.53,7.5-4.45,10.45-8.84a43.35,43.35,0,0,0,3.48-6.12C68.37,59.67,69.09,56.8,67.75,55.89ZM53.68,76.73c-.71-.48.27-4.92,4.61-11.34.34-.5.68-1,1-1.44,3.9-5.37,7.13-7.52,7.79-7.07.5.34.17,2.62-1.58,6.18a44.3,44.3,0,0,1-3,5.16C58.14,74.65,54.39,77.21,53.68,76.73Z"/><path class="cls-5" d="M60.75,51.89c-1.43-1-5.73,2.92-9.62,8.67s-5.87,11.21-4.44,12.17,5.74-2.92,9.62-8.67S62.18,52.86,60.75,51.89Z"/><path class="cls-8" d="M62.89,63.08a.35.35,0,0,0-.4,0c-.12.11-.3.28-.53.53h0a23.16,23.16,0,0,0-2.16,2.75,18.6,18.6,0,0,0-2,3.74.32.32,0,0,0,.11.39.35.35,0,0,0,.4,0A18.89,18.89,0,0,0,61,67.21a19.07,19.07,0,0,0,2-3.7s0,0,0,0A.33.33,0,0,0,62.89,63.08ZM60.63,67a18.79,18.79,0,0,1-2.31,2.88,20,20,0,0,1,1.82-3.21,19.56,19.56,0,0,1,2.3-2.88A19.68,19.68,0,0,1,60.63,67Z"/><path class="cls-9" d="M66.94,62.76a43.35,43.35,0,0,1-3.48,6.12c-3,4.39-8.18,10.37-10.45,8.84a1.69,1.69,0,0,1-.67-1.17h0L47.2,73.07a1.66,1.66,0,0,1-1.34-.18c-1.28-.87-.68-3.53.62-6.47L44,66.64c.07-.08.15-.16.21-.24a14.28,14.28,0,0,1-9.7,3.85H34a14.28,14.28,0,0,1-9.7-3.85l.21.24L22,66.42c1.3,2.94,1.9,5.6.61,6.47a1.63,1.63,0,0,1-1.33.18h0l-5.15,3.47h0a1.66,1.66,0,0,1-.67,1.17C13.18,79.25,8,73.27,5,68.88a45.15,45.15,0,0,1-3.25-5.63l.71.14.73.15.89.16.51.07h0l1.06.16.48.07h.15l.64.08L8,64.23a5.54,5.54,0,0,0,.56,0l.9.09.77,0,.75,0c.5,0,1,0,1.47,0h1.46l2.25-.09.33,0c1-.08,2-.18,3-.33.41,0,.82-.12,1.23-.2s.8-.14,1.2-.22l.52-.12c1-.21,1.94-.46,2.9-.75.44-.13.88-.26,1.32-.41.59-.2,1.18-.37,1.78-.52a24,24,0,0,1,11.65-.13c.49.12,1,.25,1.44.4s1.12.34,1.68.49c1,.26,1.95.49,2.95.69l.56.11c.4.07.79.14,1.18.19s.83.13,1.25.18c1,.13,2,.23,3.1.29l.29,0c.75,0,1.51.06,2.28.06l1.46,0c.49,0,1,0,1.49-.07l.76,0,.77-.06.92-.09.58-.06c.38,0,.78-.09,1.16-.15h0l.61-.09.42-.05,1.12-.19.51-.09.88-.17.73-.14Z"/><path class="cls-10" d="M56.92,15.86l-.09,0-1.16-.28a57.38,57.38,0,0,0-11.76-1.33c-3.62,0-6.58.47-8.34,1.32l-1.34.65-1.34-.65a20.62,20.62,0,0,0-8.23-1.32h-.11a54.6,54.6,0,0,0-7.27.53l-1.14.17c-1.13.17-2.24.39-3.31.62l-1.29.31a1.2,1.2,0,0,0-.89,1.2l.26,6.87c.43,2.89,1.2,4.74,3,6.34a15.19,15.19,0,0,0,2.68,1.87l1.45.78,1.06.52a7.28,7.28,0,0,0,3.08.79,4.69,4.69,0,0,0,2.07-.48A8.59,8.59,0,0,0,27.78,30L29.53,27a5.41,5.41,0,0,1,9.4,0L40.68,30c1.58,2.79,3.47,4.2,5.61,4.2a7.36,7.36,0,0,0,3.09-.79c3-1.46,4.95-2.68,6.17-4.21a8,8,0,0,0,1-1.58,13.17,13.17,0,0,0,1-3.72l.26-6.87A1.19,1.19,0,0,0,56.92,15.86Z"/><path class="cls-4" d="M57.67,12.9c-7.28-1.84-18.1-2.68-23.44-.09-5.34-2.59-16.16-1.75-23.44.09a4.25,4.25,0,0,0-3.2,4.28l.27,7c.91,6.27,3.42,8.88,9.91,12,5.33,2.56,9.76.49,12.67-4.65l1.75-3.08a2.34,2.34,0,0,1,4.08,0L38,31.54c2.92,5.14,7.35,7.21,12.67,4.65,6.49-3.1,9-5.71,9.92-12l.26-7A4.25,4.25,0,0,0,57.67,12.9Zm-.12,11a13.17,13.17,0,0,1-1,3.72,8,8,0,0,1-1,1.58c-1.22,1.53-3.12,2.75-6.17,4.21a7.36,7.36,0,0,1-3.09.79c-2.14,0-4-1.41-5.61-4.2L38.93,27a5.41,5.41,0,0,0-9.4,0L27.78,30a8.59,8.59,0,0,1-3.54,3.72,4.69,4.69,0,0,1-2.07.48,7.28,7.28,0,0,1-3.08-.79L18,32.92l-1.45-.78a15.19,15.19,0,0,1-2.68-1.87c-1.79-1.6-2.56-3.45-3-6.34l-.26-6.87a1.2,1.2,0,0,1,.89-1.2l1.29-.31c1.07-.23,2.18-.45,3.31-.62l1.14-.17a54.6,54.6,0,0,1,7.27-.53h.11a20.62,20.62,0,0,1,8.23,1.32l1.34.65,1.34-.65c1.76-.85,4.72-1.32,8.34-1.32a57.38,57.38,0,0,1,11.76,1.33l1.16.28.09,0a1.19,1.19,0,0,1,.89,1.2Z"/><path class="cls-3" d="M58,11.42A60,60,0,0,0,43.91,9.64a25.91,25.91,0,0,0-9.68,1.49,25.91,25.91,0,0,0-9.68-1.49,60.11,60.11,0,0,0-14.13,1.78,5.79,5.79,0,0,0-4.35,5.81l.26,7v.16C7.4,31.69,10.8,34.55,17.11,37.57a11.49,11.49,0,0,0,5.06,1.24c3.86,0,7.18-2.25,9.6-6.52l1.75-3.08a.82.82,0,0,1,1.42,0l1.75,3.08c2.42,4.27,5.74,6.52,9.6,6.52a11.49,11.49,0,0,0,5.06-1.24c6.31-3,9.71-5.88,10.77-13.14v-.16l.27-7A5.79,5.79,0,0,0,58,11.42Zm1,12.65c-.81,5.42-2.77,7.74-9,10.74a8.63,8.63,0,0,1-3.74.95c-3.4,0-5.65-2.71-6.94-5L37.6,27.71a3.87,3.87,0,0,0-6.74,0l-1.75,3.08c-1.28,2.26-3.53,5-6.94,5a8.63,8.63,0,0,1-3.74-.95c-6.28-3-8.24-5.32-9-10.74l-.26-6.95a2.72,2.72,0,0,1,2.05-2.74A58,58,0,0,1,24.55,12.7c3.9,0,7,.51,9,1.48l.67.33.67-.33c2-1,5.11-1.48,9-1.48A58.12,58.12,0,0,1,57.3,14.38a2.72,2.72,0,0,1,2,2.74Z"/></g></g></svg>