<svg xmlns="http://www.w3.org/2000/svg" xmlns:xlink="http://www.w3.org/1999/xlink" viewBox="0 0 65.08 68.17"><defs><style>.cls-1{isolation:isolate;}.cls-2{fill:url(#Áåçûìÿííûé_ãðàäèåíò_114);}.cls-3{opacity:0.3;mix-blend-mode:multiply;fill:url(#Áåçûìÿííûé_ãðàäèåíò_114-2);}.cls-4{fill:url(#Áåçûìÿííûé_ãðàäèåíò_643);}.cls-5{opacity:0.1;mix-blend-mode:screen;fill:url(#Áåçûìÿííûé_ãðàäèåíò_85);}.cls-6{fill:#6b645e;}.cls-7{fill:#e8ddd3;}.cls-8{fill:#5b5651;}</style><linearGradient id="Áåçûìÿííûé_ãðàäèåíò_114" y1="43.58" x2="65.08" y2="43.58" gradientUnits="userSpaceOnUse"><stop offset="0" stop-color="#d5cbbf"/><stop offset="0.05" stop-color="#d3c9bc"/><stop offset="0.25" stop-color="#cec4b7"/><stop offset="0.91" stop-color="#dcd1c6"/><stop offset="1" stop-color="#ded3c9"/></linearGradient><linearGradient id="Áåçûìÿííûé_ãðàäèåíò_114-2" x1="3.66" y1="43.18" x2="61.55" y2="43.18" xlink:href="#Áåçûìÿííûé_ãðàäèåíò_114"/><radialGradient id="Áåçûìÿííûé_ãðàäèåíò_643" cx="45.29" cy="2.35" r="54.52" gradientUnits="userSpaceOnUse"><stop offset="0" stop-color="#fff6ee"/><stop offset="0.48" stop-color="#f2e8df"/><stop offset="1" stop-color="#ded3c9"/></radialGradient><radialGradient id="Áåçûìÿííûé_ãðàäèåíò_85" cx="37.25" cy="28.69" r="21" gradientUnits="userSpaceOnUse"><stop offset="0" stop-color="#f2e8df"/><stop offset="1" stop-color="#ded3c9"/></radialGradient></defs><title>WaterAsset 1Tank</title><g class="cls-1"><g id="Layer_2" data-name="Layer 2"><g id="_0" data-name="0"><g id="_8" data-name="8"><path class="cls-2" d="M.09,19,0,49.26C0,54,3,58.75,9.19,62.42c12.51,7.48,33.08,7.69,46,.47C61.68,59.22,65,54.34,65,49.44l.09-30.26Z"/><path class="cls-3" d="M42.1,19.11h.23v48.2l-.23,0Zm19.22,39,.23-.26V19.17h-.23ZM3.66,58l.22.24V19H3.66Zm19.22,9.33.22,0V19.06h-.22Z"/><path class="cls-4" d="M62.65,11.89a22.59,22.59,0,0,0-6.91-6.14C47.13.39,32.48-1.5,20.9,1.26c-8.83,2.1-12.8,5-15.82,7.6a16.82,16.82,0,0,0-4,5.49A12,12,0,0,0,.09,19c0,4.74,3,9.49,9.19,13.17,12.51,7.48,33.08,7.69,45.95.46,6.54-3.67,9.83-8.55,9.85-13.47A12.66,12.66,0,0,0,62.65,11.89Z"/><path class="cls-5" d="M49.61,34.86C35.89,39.13,22,38.7,9.28,32.16c13.4,7.58,29.16,7.72,43.23,2.1,6.54-2.89,12.4-7.9,12.57-15.11C64.54,27.19,57,32.33,49.61,34.86Z"/><path class="cls-6" d="M56.74,31.71,53.5,29.84l-2.41,1.39,3.24,1.87c.3-.15.61-.31.9-.48C55.76,32.33,56.25,32,56.74,31.71Z"/><ellipse id="Cylinder_face" data-name="Cylinder face" class="cls-7" cx="32.54" cy="14.5" rx="1.81" ry="1.04"/><path class="cls-8" d="M58.19,59.8l-.13,0a.64.64,0,0,1-.37-.54V29a.27.27,0,0,1,.12-.23.34.34,0,0,1,.32,0l.75.44a.63.63,0,0,1,.31.5V58.42a1,1,0,0,1-.28.78l-.55.54A.24.24,0,0,1,58.19,59.8ZM57.94,29s0,30.25,0,30.25a.41.41,0,0,0,.16.28.2.2,0,0,0,.1,0l.55-.53a.84.84,0,0,0,.21-.61V29.74a.39.39,0,0,0-.19-.29L58,29A.1.1,0,0,0,57.94,29Z"/><path class="cls-8" d="M57.81,32.46l-1-.58a.08.08,0,0,1,0-.08.07.07,0,0,1,.09,0l1,.57a.06.06,0,0,1,0,.08A.09.09,0,0,1,57.81,32.46Z"/><path class="cls-8" d="M57.81,35.25l-1-.58a.08.08,0,0,1,0-.08.07.07,0,0,1,.09,0l1,.57a.06.06,0,0,1,0,.08A.09.09,0,0,1,57.81,35.25Z"/><path class="cls-8" d="M57.81,38l-1-.58a.08.08,0,0,1,0-.08.07.07,0,0,1,.09,0l1,.57a.06.06,0,0,1,0,.08A.09.09,0,0,1,57.81,38Z"/><path class="cls-8" d="M57.81,40.83l-1-.58a.08.08,0,0,1,0-.08.07.07,0,0,1,.09,0l1,.57a.06.06,0,0,1,0,.08A.09.09,0,0,1,57.81,40.83Z"/><path class="cls-8" d="M57.81,43.62l-1-.58a.08.08,0,0,1,0-.08.07.07,0,0,1,.09,0l1,.57a.06.06,0,0,1,0,.08Z"/><path class="cls-8" d="M57.81,46.41l-1-.58a.08.08,0,0,1,0-.08.07.07,0,0,1,.09,0l1,.57a.06.06,0,0,1,0,.08Z"/><path class="cls-8" d="M57.81,49.2l-1-.58a.08.08,0,0,1,0-.08.07.07,0,0,1,.09,0l1,.57a.06.06,0,0,1,0,.08Z"/><path class="cls-8" d="M57.81,52l-1-.58a.08.08,0,0,1,0-.08.07.07,0,0,1,.09,0l1,.57a.06.06,0,0,1,0,.08Z"/><path class="cls-8" d="M57.81,54.78l-1-.58a.08.08,0,0,1,0-.08.07.07,0,0,1,.09,0l1,.57a.06.06,0,0,1,0,.08A.09.09,0,0,1,57.81,54.78Z"/><path class="cls-8" d="M57.81,57.57l-1-.58a.08.08,0,0,1,0-.08.08.08,0,0,1,.09,0l1,.58a.06.06,0,0,1,0,.08A.09.09,0,0,1,57.81,57.57Z"/><path class="cls-8" d="M55.51,33.93a.11.11,0,0,1-.1-.06.11.11,0,0,1,0-.16l2.28-1.32a.12.12,0,0,1,.16,0,.11.11,0,0,1,0,.16l-2.28,1.32Z"/><path class="cls-8" d="M55.51,35.16a.11.11,0,0,1-.1-.06.11.11,0,0,1,0-.16l2.28-1.32a.12.12,0,0,1,.16.05.11.11,0,0,1,0,.16l-2.28,1.32Z"/><path class="cls-8" d="M55.51,36.39a.11.11,0,0,1-.1-.06.12.12,0,0,1,0-.17l2.28-1.31a.12.12,0,0,1,.16,0,.12.12,0,0,1,0,.17l-2.28,1.31A.07.07,0,0,1,55.51,36.39Z"/><path class="cls-8" d="M55.51,37.62a.11.11,0,0,1-.1-.06.12.12,0,0,1,0-.17l2.28-1.31a.11.11,0,0,1,.16,0,.12.12,0,0,1,0,.17L55.57,37.6Z"/><path class="cls-8" d="M55.51,38.85a.13.13,0,0,1-.1-.06.12.12,0,0,1,0-.17l2.28-1.31a.11.11,0,0,1,.16,0,.12.12,0,0,1,0,.17l-2.28,1.31Z"/><path class="cls-8" d="M55.51,40.07a.11.11,0,0,1-.1-.06.11.11,0,0,1,0-.16l2.28-1.32a.12.12,0,0,1,.16,0,.11.11,0,0,1,0,.16l-2.28,1.32Z"/><path class="cls-8" d="M55.51,41.3a.11.11,0,0,1-.1-.06.11.11,0,0,1,0-.16l2.28-1.32a.12.12,0,0,1,.16.05.11.11,0,0,1,0,.16l-2.28,1.32Z"/><path class="cls-8" d="M55.51,42.53a.11.11,0,0,1-.1-.06.12.12,0,0,1,0-.17L57.73,41a.12.12,0,0,1,.16,0,.12.12,0,0,1,0,.17l-2.28,1.31Z"/><path class="cls-8" d="M55.51,43.76a.11.11,0,0,1-.1-.06.12.12,0,0,1,0-.17l2.28-1.31a.11.11,0,0,1,.16,0,.12.12,0,0,1,0,.17l-2.28,1.31Z"/><path class="cls-8" d="M55.51,45a.11.11,0,0,1-.1-.06.11.11,0,0,1,0-.16l2.28-1.32a.12.12,0,0,1,.16.05.11.11,0,0,1,0,.16L55.57,45Z"/><path class="cls-8" d="M55.51,46.21a.11.11,0,0,1-.1-.06.11.11,0,0,1,0-.16l2.28-1.32a.12.12,0,0,1,.16,0,.11.11,0,0,1,0,.16L55.57,46.2Z"/><path class="cls-8" d="M55.51,47.44a.11.11,0,0,1-.1-.06.12.12,0,0,1,0-.17l2.28-1.31a.12.12,0,0,1,.16,0,.12.12,0,0,1,0,.17l-2.28,1.31A.07.07,0,0,1,55.51,47.44Z"/><path class="cls-8" d="M55.51,48.67a.11.11,0,0,1-.1-.06.12.12,0,0,1,0-.17l2.28-1.31a.11.11,0,0,1,.16,0,.12.12,0,0,1,0,.17l-2.28,1.31Z"/><path class="cls-8" d="M55.51,49.9a.13.13,0,0,1-.1-.06.12.12,0,0,1,0-.17l2.28-1.31a.11.11,0,0,1,.16,0,.12.12,0,0,1,0,.17l-2.28,1.31Z"/><path class="cls-8" d="M55.51,51.12a.11.11,0,0,1-.1-.06.11.11,0,0,1,0-.16l2.28-1.32a.12.12,0,0,1,.16.05.11.11,0,0,1,0,.16l-2.28,1.32Z"/><path class="cls-8" d="M55.51,52.35a.11.11,0,0,1-.1-.06.11.11,0,0,1,0-.16l2.28-1.32a.12.12,0,0,1,.16,0,.11.11,0,0,1,0,.16l-2.28,1.32Z"/><path class="cls-8" d="M55.51,53.58a.11.11,0,0,1-.1-.06.12.12,0,0,1,0-.17L57.73,52a.12.12,0,0,1,.16,0,.12.12,0,0,1,0,.17l-2.28,1.31Z"/><path class="cls-8" d="M55.51,54.81a.11.11,0,0,1-.1-.06.12.12,0,0,1,0-.17l2.28-1.31a.11.11,0,0,1,.16,0,.12.12,0,0,1,0,.17l-2.28,1.31Z"/><path class="cls-8" d="M55.51,56a.12.12,0,0,1-.1-.07.11.11,0,0,1,0-.16l2.28-1.32a.12.12,0,0,1,.16,0,.11.11,0,0,1,0,.16L55.57,56Z"/><path class="cls-8" d="M55.51,57.26a.11.11,0,0,1-.1-.06.11.11,0,0,1,0-.16l2.28-1.32a.12.12,0,0,1,.16.05.11.11,0,0,1,0,.16l-2.28,1.32Z"/><path class="cls-8" d="M55.51,58.49a.11.11,0,0,1-.1-.06.12.12,0,0,1,0-.17L57.73,57a.12.12,0,0,1,.16,0,.12.12,0,0,1,0,.17l-2.28,1.31A.07.07,0,0,1,55.51,58.49Z"/><path class="cls-8" d="M55.51,59.72a.11.11,0,0,1-.1-.06.12.12,0,0,1,0-.17l2.28-1.31a.11.11,0,0,1,.16,0,.12.12,0,0,1,0,.17L55.57,59.7Z"/><path class="cls-8" d="M55.89,61.13a.31.31,0,0,1-.13,0,.63.63,0,0,1-.37-.53V30.34a.27.27,0,0,1,.12-.23.31.31,0,0,1,.32,0l.75.44a.61.61,0,0,1,.31.5V59.75a1,1,0,0,1-.28.78l-.55.53A.21.21,0,0,1,55.89,61.13Zm-.25-30.81s0,30.25,0,30.25a.41.41,0,0,0,.17.28.16.16,0,0,0,.1,0l.54-.53a.84.84,0,0,0,.21-.61V31.07a.39.39,0,0,0-.19-.29l-.76-.44Z"/><path class="cls-8" d="M55.51,33.79l-1-.58a.08.08,0,0,1,0-.08.07.07,0,0,1,.08,0l1,.57a.08.08,0,0,1,0,.09A.09.09,0,0,1,55.51,33.79Z"/><path class="cls-8" d="M55.51,36.58l-1-.58a.08.08,0,0,1,0-.08.07.07,0,0,1,.08,0l1,.57a.08.08,0,0,1,0,.09A.09.09,0,0,1,55.51,36.58Z"/><path class="cls-8" d="M55.51,39.37l-1-.58a.08.08,0,0,1,0-.08.07.07,0,0,1,.08,0l1,.57a.08.08,0,0,1,0,.09Z"/><path class="cls-8" d="M55.51,42.16l-1-.58a.08.08,0,0,1,0-.08.07.07,0,0,1,.08,0l1,.57a.08.08,0,0,1,0,.09Z"/><path class="cls-8" d="M55.51,45l-1-.58a.08.08,0,0,1,0-.08.07.07,0,0,1,.08,0l1,.57a.08.08,0,0,1,0,.09A.09.09,0,0,1,55.51,45Z"/><path class="cls-8" d="M55.51,47.74l-1-.58a.08.08,0,0,1,0-.08.07.07,0,0,1,.08,0l1,.57a.08.08,0,0,1,0,.09Z"/><path class="cls-8" d="M55.51,50.53l-1-.58a.08.08,0,0,1,0-.08.07.07,0,0,1,.08,0l1,.57a.08.08,0,0,1,0,.09A.09.09,0,0,1,55.51,50.53Z"/><path class="cls-8" d="M55.51,53.32l-1-.58a.08.08,0,0,1,0-.08.07.07,0,0,1,.08,0l1,.57a.08.08,0,0,1,0,.09A.09.09,0,0,1,55.51,53.32Z"/><path class="cls-8" d="M55.51,56.11l-1-.58a.08.08,0,0,1,0-.08.07.07,0,0,1,.08,0l1,.57a.08.08,0,0,1,0,.09A.09.09,0,0,1,55.51,56.11Z"/><path class="cls-8" d="M55.51,58.9l-1-.58a.08.08,0,0,1,0-.08.07.07,0,0,1,.08,0l1,.57a.08.08,0,0,1,0,.09A.09.09,0,0,1,55.51,58.9Z"/></g></g></g></g></svg>